G04 #@! TF.GenerationSoftware,KiCad,Pcbnew,5.0.2-bee76a0~70~ubuntu18.04.1*
G04 #@! TF.CreationDate,2020-12-03T10:47:44+05:30*
G04 #@! TF.ProjectId,How to make PCB,486f7720-746f-4206-9d61-6b6520504342,rev?*
G04 #@! TF.SameCoordinates,Original*
G04 #@! TF.FileFunction,Legend,Top*
G04 #@! TF.FilePolarity,Positive*
%FSLAX46Y46*%
G04 Gerber Fmt 4.6, Leading zero omitted, Abs format (unit mm)*
G04 Created by KiCad (PCBNEW 5.0.2-bee76a0~70~ubuntu18.04.1) date Thu Dec  3 10:47:44 2020*
%MOMM*%
%LPD*%
G01*
G04 APERTURE LIST*
%ADD10C,0.300000*%
%ADD11C,0.200000*%
%ADD12C,0.120000*%
%ADD13C,0.010000*%
%ADD14C,0.150000*%
G04 APERTURE END LIST*
D10*
X156928571Y-90848571D02*
X156928571Y-89348571D01*
X157500000Y-89348571D01*
X157642857Y-89420000D01*
X157714285Y-89491428D01*
X157785714Y-89634285D01*
X157785714Y-89848571D01*
X157714285Y-89991428D01*
X157642857Y-90062857D01*
X157500000Y-90134285D01*
X156928571Y-90134285D01*
X158357142Y-90777142D02*
X158571428Y-90848571D01*
X158928571Y-90848571D01*
X159071428Y-90777142D01*
X159142857Y-90705714D01*
X159214285Y-90562857D01*
X159214285Y-90420000D01*
X159142857Y-90277142D01*
X159071428Y-90205714D01*
X158928571Y-90134285D01*
X158642857Y-90062857D01*
X158500000Y-89991428D01*
X158428571Y-89920000D01*
X158357142Y-89777142D01*
X158357142Y-89634285D01*
X158428571Y-89491428D01*
X158500000Y-89420000D01*
X158642857Y-89348571D01*
X159000000Y-89348571D01*
X159214285Y-89420000D01*
X159785714Y-90777142D02*
X160000000Y-90848571D01*
X160357142Y-90848571D01*
X160500000Y-90777142D01*
X160571428Y-90705714D01*
X160642857Y-90562857D01*
X160642857Y-90420000D01*
X160571428Y-90277142D01*
X160500000Y-90205714D01*
X160357142Y-90134285D01*
X160071428Y-90062857D01*
X159928571Y-89991428D01*
X159857142Y-89920000D01*
X159785714Y-89777142D01*
X159785714Y-89634285D01*
X159857142Y-89491428D01*
X159928571Y-89420000D01*
X160071428Y-89348571D01*
X160428571Y-89348571D01*
X160642857Y-89420000D01*
X156607142Y-79688571D02*
X156964285Y-80688571D01*
X157321428Y-79688571D01*
X158678571Y-80688571D02*
X157821428Y-80688571D01*
X158250000Y-80688571D02*
X158250000Y-79188571D01*
X158107142Y-79402857D01*
X157964285Y-79545714D01*
X157821428Y-79617142D01*
X159321428Y-80545714D02*
X159392857Y-80617142D01*
X159321428Y-80688571D01*
X159250000Y-80617142D01*
X159321428Y-80545714D01*
X159321428Y-80688571D01*
X160321428Y-79188571D02*
X160464285Y-79188571D01*
X160607142Y-79260000D01*
X160678571Y-79331428D01*
X160750000Y-79474285D01*
X160821428Y-79760000D01*
X160821428Y-80117142D01*
X160750000Y-80402857D01*
X160678571Y-80545714D01*
X160607142Y-80617142D01*
X160464285Y-80688571D01*
X160321428Y-80688571D01*
X160178571Y-80617142D01*
X160107142Y-80545714D01*
X160035714Y-80402857D01*
X159964285Y-80117142D01*
X159964285Y-79760000D01*
X160035714Y-79474285D01*
X160107142Y-79331428D01*
X160178571Y-79260000D01*
X160321428Y-79188571D01*
D11*
X127000000Y-99060000D02*
X161290000Y-99060000D01*
X125730000Y-72390000D02*
X125730000Y-97790000D01*
X161290000Y-71120000D02*
X127000000Y-71120000D01*
X162560000Y-97790000D02*
X162560000Y-72390000D01*
X162560000Y-97790000D02*
G75*
G02X161290000Y-99060000I-1270000J0D01*
G01*
X127000000Y-99060000D02*
G75*
G02X125730000Y-97790000I0J1270000D01*
G01*
X125730000Y-72390000D02*
G75*
G02X127000000Y-71120000I1270000J0D01*
G01*
X161290000Y-71120000D02*
G75*
G02X162560000Y-72390000I0J-1270000D01*
G01*
D12*
G04 #@! TO.C,C1*
X151030000Y-88800000D02*
X156270000Y-88800000D01*
X151030000Y-91540000D02*
X156270000Y-91540000D01*
X151030000Y-88800000D02*
X151030000Y-91540000D01*
X156270000Y-88800000D02*
X156270000Y-91540000D01*
G04 #@! TO.C,D1*
X153670462Y-82100000D02*
G75*
G03X152125170Y-87650000I-462J-2990000D01*
G01*
X153669538Y-82100000D02*
G75*
G02X155214830Y-87650000I462J-2990000D01*
G01*
X156170000Y-85090000D02*
G75*
G03X156170000Y-85090000I-2500000J0D01*
G01*
X152125000Y-87650000D02*
X155215000Y-87650000D01*
G04 #@! TO.C,J1*
X128270000Y-90170000D02*
X128270000Y-80010000D01*
X127000000Y-90170000D02*
X134620000Y-90170000D01*
X134620000Y-90170000D02*
X134620000Y-80010000D01*
X134620000Y-80010000D02*
X127000000Y-80010000D01*
X127000000Y-80010000D02*
X127000000Y-90170000D01*
G04 #@! TO.C,R1*
X137160000Y-84050000D02*
X137160000Y-83280000D01*
X137160000Y-75970000D02*
X137160000Y-76740000D01*
X138530000Y-83280000D02*
X138530000Y-76740000D01*
X135790000Y-83280000D02*
X138530000Y-83280000D01*
X135790000Y-76740000D02*
X135790000Y-83280000D01*
X138530000Y-76740000D02*
X135790000Y-76740000D01*
G04 #@! TO.C,R2*
X149320000Y-76300000D02*
X149320000Y-73560000D01*
X149320000Y-73560000D02*
X142780000Y-73560000D01*
X142780000Y-73560000D02*
X142780000Y-76300000D01*
X142780000Y-76300000D02*
X149320000Y-76300000D01*
X150090000Y-74930000D02*
X149320000Y-74930000D01*
X142010000Y-74930000D02*
X142780000Y-74930000D01*
G04 #@! TO.C,R3*
X149320000Y-80110000D02*
X149320000Y-77370000D01*
X149320000Y-77370000D02*
X142780000Y-77370000D01*
X142780000Y-77370000D02*
X142780000Y-80110000D01*
X142780000Y-80110000D02*
X149320000Y-80110000D01*
X150090000Y-78740000D02*
X149320000Y-78740000D01*
X142010000Y-78740000D02*
X142780000Y-78740000D01*
G04 #@! TO.C,U1*
X145780000Y-81220000D02*
G75*
G02X143780000Y-81220000I-1000000J0D01*
G01*
X143780000Y-81220000D02*
X142530000Y-81220000D01*
X142530000Y-81220000D02*
X142530000Y-91500000D01*
X142530000Y-91500000D02*
X147030000Y-91500000D01*
X147030000Y-91500000D02*
X147030000Y-81220000D01*
X147030000Y-81220000D02*
X145780000Y-81220000D01*
D13*
G04 #@! TO.C,REF\002A\002A*
G36*
X141236957Y-92276571D02*
X141333232Y-92300809D01*
X141419816Y-92343641D01*
X141494627Y-92403419D01*
X141555582Y-92478494D01*
X141600601Y-92567220D01*
X141626864Y-92663530D01*
X141632714Y-92760795D01*
X141617860Y-92854654D01*
X141584160Y-92942511D01*
X141533472Y-93021770D01*
X141467655Y-93089836D01*
X141388566Y-93144112D01*
X141298066Y-93182002D01*
X141246800Y-93194426D01*
X141202302Y-93201947D01*
X141168001Y-93204919D01*
X141135040Y-93203094D01*
X141094566Y-93196225D01*
X141061469Y-93189250D01*
X140968053Y-93157741D01*
X140884381Y-93106617D01*
X140812335Y-93037429D01*
X140753800Y-92951728D01*
X140739852Y-92924489D01*
X140723414Y-92888122D01*
X140713106Y-92857582D01*
X140707540Y-92825450D01*
X140705331Y-92784307D01*
X140705052Y-92738222D01*
X140709139Y-92653865D01*
X140722554Y-92584586D01*
X140747744Y-92523961D01*
X140787154Y-92465567D01*
X140825702Y-92421302D01*
X140897594Y-92355484D01*
X140972687Y-92310053D01*
X141055438Y-92282850D01*
X141133072Y-92272576D01*
X141236957Y-92276571D01*
X141236957Y-92276571D01*
G37*
X141236957Y-92276571D02*
X141333232Y-92300809D01*
X141419816Y-92343641D01*
X141494627Y-92403419D01*
X141555582Y-92478494D01*
X141600601Y-92567220D01*
X141626864Y-92663530D01*
X141632714Y-92760795D01*
X141617860Y-92854654D01*
X141584160Y-92942511D01*
X141533472Y-93021770D01*
X141467655Y-93089836D01*
X141388566Y-93144112D01*
X141298066Y-93182002D01*
X141246800Y-93194426D01*
X141202302Y-93201947D01*
X141168001Y-93204919D01*
X141135040Y-93203094D01*
X141094566Y-93196225D01*
X141061469Y-93189250D01*
X140968053Y-93157741D01*
X140884381Y-93106617D01*
X140812335Y-93037429D01*
X140753800Y-92951728D01*
X140739852Y-92924489D01*
X140723414Y-92888122D01*
X140713106Y-92857582D01*
X140707540Y-92825450D01*
X140705331Y-92784307D01*
X140705052Y-92738222D01*
X140709139Y-92653865D01*
X140722554Y-92584586D01*
X140747744Y-92523961D01*
X140787154Y-92465567D01*
X140825702Y-92421302D01*
X140897594Y-92355484D01*
X140972687Y-92310053D01*
X141055438Y-92282850D01*
X141133072Y-92272576D01*
X141236957Y-92276571D01*
G36*
X149696507Y-94722245D02*
X149696526Y-94956662D01*
X149696552Y-95169603D01*
X149696625Y-95362168D01*
X149696782Y-95535459D01*
X149697064Y-95690576D01*
X149697509Y-95828620D01*
X149698156Y-95950692D01*
X149699045Y-96057894D01*
X149700213Y-96151326D01*
X149701701Y-96232090D01*
X149703546Y-96301286D01*
X149705789Y-96360015D01*
X149708469Y-96409379D01*
X149711623Y-96450478D01*
X149715292Y-96484413D01*
X149719513Y-96512286D01*
X149724327Y-96535198D01*
X149729773Y-96554249D01*
X149735888Y-96570540D01*
X149742712Y-96585173D01*
X149750285Y-96599249D01*
X149758645Y-96613868D01*
X149763839Y-96622974D01*
X149798104Y-96683689D01*
X148939955Y-96683689D01*
X148939955Y-96587733D01*
X148939224Y-96544370D01*
X148937272Y-96511205D01*
X148934463Y-96493424D01*
X148933221Y-96491778D01*
X148921799Y-96498662D01*
X148899084Y-96516505D01*
X148876385Y-96535879D01*
X148821800Y-96576614D01*
X148752321Y-96617617D01*
X148675270Y-96655123D01*
X148597965Y-96685364D01*
X148567113Y-96695012D01*
X148498616Y-96709578D01*
X148415764Y-96719539D01*
X148326371Y-96724583D01*
X148238248Y-96724396D01*
X148159207Y-96718666D01*
X148121511Y-96712858D01*
X147983414Y-96674797D01*
X147856113Y-96617073D01*
X147740292Y-96540211D01*
X147636637Y-96444739D01*
X147545833Y-96331179D01*
X147479031Y-96220381D01*
X147424164Y-96103625D01*
X147382163Y-95984276D01*
X147352167Y-95858283D01*
X147333311Y-95721594D01*
X147324732Y-95570158D01*
X147324006Y-95492711D01*
X147326100Y-95435934D01*
X148155217Y-95435934D01*
X148155424Y-95529002D01*
X148158337Y-95616692D01*
X148164000Y-95693772D01*
X148172455Y-95755009D01*
X148175038Y-95767350D01*
X148206840Y-95874633D01*
X148248498Y-95961658D01*
X148300363Y-96028642D01*
X148362781Y-96075805D01*
X148436100Y-96103365D01*
X148520669Y-96111541D01*
X148616835Y-96100551D01*
X148680311Y-96084829D01*
X148729454Y-96066639D01*
X148783583Y-96040791D01*
X148824244Y-96017089D01*
X148894800Y-95970721D01*
X148894800Y-94820530D01*
X148827392Y-94776962D01*
X148748867Y-94736040D01*
X148664681Y-94709389D01*
X148579557Y-94697465D01*
X148498216Y-94700722D01*
X148425380Y-94719615D01*
X148393426Y-94735184D01*
X148335501Y-94778181D01*
X148286544Y-94834953D01*
X148245390Y-94907575D01*
X148210874Y-94998121D01*
X148181833Y-95108666D01*
X148180552Y-95114533D01*
X148170381Y-95176788D01*
X148162739Y-95254594D01*
X148157670Y-95342720D01*
X148155217Y-95435934D01*
X147326100Y-95435934D01*
X147331857Y-95279895D01*
X147353802Y-95084059D01*
X147389786Y-94905332D01*
X147439759Y-94743845D01*
X147503668Y-94599726D01*
X147581462Y-94473106D01*
X147673089Y-94364115D01*
X147778497Y-94272883D01*
X147823662Y-94241932D01*
X147924611Y-94185785D01*
X148027901Y-94146174D01*
X148137989Y-94122014D01*
X148259330Y-94112219D01*
X148351836Y-94113265D01*
X148481490Y-94124231D01*
X148594084Y-94146046D01*
X148692875Y-94179714D01*
X148781121Y-94226236D01*
X148829986Y-94260448D01*
X148859353Y-94282362D01*
X148881043Y-94297333D01*
X148889253Y-94301733D01*
X148890868Y-94290904D01*
X148892159Y-94260251D01*
X148893138Y-94212526D01*
X148893817Y-94150479D01*
X148894210Y-94076862D01*
X148894330Y-93994427D01*
X148894188Y-93905925D01*
X148893797Y-93814107D01*
X148893171Y-93721724D01*
X148892320Y-93631528D01*
X148891260Y-93546271D01*
X148890001Y-93468703D01*
X148888556Y-93401576D01*
X148886938Y-93347641D01*
X148885161Y-93309650D01*
X148884669Y-93302667D01*
X148877092Y-93232251D01*
X148865531Y-93177102D01*
X148847792Y-93129981D01*
X148821682Y-93083647D01*
X148815415Y-93074067D01*
X148790983Y-93037378D01*
X149696311Y-93037378D01*
X149696507Y-94722245D01*
X149696507Y-94722245D01*
G37*
X149696507Y-94722245D02*
X149696526Y-94956662D01*
X149696552Y-95169603D01*
X149696625Y-95362168D01*
X149696782Y-95535459D01*
X149697064Y-95690576D01*
X149697509Y-95828620D01*
X149698156Y-95950692D01*
X149699045Y-96057894D01*
X149700213Y-96151326D01*
X149701701Y-96232090D01*
X149703546Y-96301286D01*
X149705789Y-96360015D01*
X149708469Y-96409379D01*
X149711623Y-96450478D01*
X149715292Y-96484413D01*
X149719513Y-96512286D01*
X149724327Y-96535198D01*
X149729773Y-96554249D01*
X149735888Y-96570540D01*
X149742712Y-96585173D01*
X149750285Y-96599249D01*
X149758645Y-96613868D01*
X149763839Y-96622974D01*
X149798104Y-96683689D01*
X148939955Y-96683689D01*
X148939955Y-96587733D01*
X148939224Y-96544370D01*
X148937272Y-96511205D01*
X148934463Y-96493424D01*
X148933221Y-96491778D01*
X148921799Y-96498662D01*
X148899084Y-96516505D01*
X148876385Y-96535879D01*
X148821800Y-96576614D01*
X148752321Y-96617617D01*
X148675270Y-96655123D01*
X148597965Y-96685364D01*
X148567113Y-96695012D01*
X148498616Y-96709578D01*
X148415764Y-96719539D01*
X148326371Y-96724583D01*
X148238248Y-96724396D01*
X148159207Y-96718666D01*
X148121511Y-96712858D01*
X147983414Y-96674797D01*
X147856113Y-96617073D01*
X147740292Y-96540211D01*
X147636637Y-96444739D01*
X147545833Y-96331179D01*
X147479031Y-96220381D01*
X147424164Y-96103625D01*
X147382163Y-95984276D01*
X147352167Y-95858283D01*
X147333311Y-95721594D01*
X147324732Y-95570158D01*
X147324006Y-95492711D01*
X147326100Y-95435934D01*
X148155217Y-95435934D01*
X148155424Y-95529002D01*
X148158337Y-95616692D01*
X148164000Y-95693772D01*
X148172455Y-95755009D01*
X148175038Y-95767350D01*
X148206840Y-95874633D01*
X148248498Y-95961658D01*
X148300363Y-96028642D01*
X148362781Y-96075805D01*
X148436100Y-96103365D01*
X148520669Y-96111541D01*
X148616835Y-96100551D01*
X148680311Y-96084829D01*
X148729454Y-96066639D01*
X148783583Y-96040791D01*
X148824244Y-96017089D01*
X148894800Y-95970721D01*
X148894800Y-94820530D01*
X148827392Y-94776962D01*
X148748867Y-94736040D01*
X148664681Y-94709389D01*
X148579557Y-94697465D01*
X148498216Y-94700722D01*
X148425380Y-94719615D01*
X148393426Y-94735184D01*
X148335501Y-94778181D01*
X148286544Y-94834953D01*
X148245390Y-94907575D01*
X148210874Y-94998121D01*
X148181833Y-95108666D01*
X148180552Y-95114533D01*
X148170381Y-95176788D01*
X148162739Y-95254594D01*
X148157670Y-95342720D01*
X148155217Y-95435934D01*
X147326100Y-95435934D01*
X147331857Y-95279895D01*
X147353802Y-95084059D01*
X147389786Y-94905332D01*
X147439759Y-94743845D01*
X147503668Y-94599726D01*
X147581462Y-94473106D01*
X147673089Y-94364115D01*
X147778497Y-94272883D01*
X147823662Y-94241932D01*
X147924611Y-94185785D01*
X148027901Y-94146174D01*
X148137989Y-94122014D01*
X148259330Y-94112219D01*
X148351836Y-94113265D01*
X148481490Y-94124231D01*
X148594084Y-94146046D01*
X148692875Y-94179714D01*
X148781121Y-94226236D01*
X148829986Y-94260448D01*
X148859353Y-94282362D01*
X148881043Y-94297333D01*
X148889253Y-94301733D01*
X148890868Y-94290904D01*
X148892159Y-94260251D01*
X148893138Y-94212526D01*
X148893817Y-94150479D01*
X148894210Y-94076862D01*
X148894330Y-93994427D01*
X148894188Y-93905925D01*
X148893797Y-93814107D01*
X148893171Y-93721724D01*
X148892320Y-93631528D01*
X148891260Y-93546271D01*
X148890001Y-93468703D01*
X148888556Y-93401576D01*
X148886938Y-93347641D01*
X148885161Y-93309650D01*
X148884669Y-93302667D01*
X148877092Y-93232251D01*
X148865531Y-93177102D01*
X148847792Y-93129981D01*
X148821682Y-93083647D01*
X148815415Y-93074067D01*
X148790983Y-93037378D01*
X149696311Y-93037378D01*
X149696507Y-94722245D01*
G36*
X146183574Y-94116552D02*
X146335492Y-94136567D01*
X146470756Y-94170202D01*
X146590239Y-94217725D01*
X146694815Y-94279405D01*
X146772424Y-94342965D01*
X146841265Y-94417099D01*
X146895006Y-94496871D01*
X146937910Y-94589091D01*
X146953384Y-94632161D01*
X146966244Y-94671142D01*
X146977446Y-94707289D01*
X146987120Y-94742434D01*
X146995396Y-94778410D01*
X147002403Y-94817050D01*
X147008272Y-94860185D01*
X147013131Y-94909649D01*
X147017110Y-94967273D01*
X147020340Y-95034891D01*
X147022949Y-95114334D01*
X147025067Y-95207436D01*
X147026824Y-95316027D01*
X147028349Y-95441942D01*
X147029772Y-95587012D01*
X147031025Y-95729778D01*
X147032351Y-95885968D01*
X147033556Y-96021239D01*
X147034766Y-96137246D01*
X147036106Y-96235645D01*
X147037700Y-96318093D01*
X147039675Y-96386246D01*
X147042156Y-96441760D01*
X147045269Y-96486292D01*
X147049138Y-96521498D01*
X147053889Y-96549034D01*
X147059648Y-96570556D01*
X147066539Y-96587722D01*
X147074689Y-96602186D01*
X147084223Y-96615606D01*
X147095266Y-96629638D01*
X147099566Y-96635071D01*
X147115386Y-96657910D01*
X147122422Y-96673463D01*
X147122444Y-96673922D01*
X147111567Y-96676121D01*
X147080582Y-96678147D01*
X147031957Y-96679942D01*
X146968163Y-96681451D01*
X146891669Y-96682616D01*
X146804944Y-96683380D01*
X146710457Y-96683686D01*
X146699550Y-96683689D01*
X146276657Y-96683689D01*
X146273395Y-96587622D01*
X146270133Y-96491556D01*
X146208044Y-96542543D01*
X146110714Y-96610057D01*
X146000813Y-96664749D01*
X145914349Y-96694978D01*
X145845278Y-96709666D01*
X145761925Y-96719659D01*
X145672159Y-96724646D01*
X145583845Y-96724313D01*
X145504851Y-96718351D01*
X145468622Y-96712638D01*
X145328603Y-96674776D01*
X145202178Y-96619932D01*
X145090260Y-96548924D01*
X144993762Y-96462568D01*
X144913600Y-96361679D01*
X144850687Y-96247076D01*
X144806312Y-96120984D01*
X144793978Y-96064401D01*
X144786368Y-96002202D01*
X144782739Y-95927363D01*
X144782245Y-95893467D01*
X144782310Y-95890282D01*
X145542248Y-95890282D01*
X145551541Y-95965333D01*
X145579728Y-96029160D01*
X145628197Y-96084798D01*
X145633254Y-96089211D01*
X145681548Y-96124037D01*
X145733257Y-96146620D01*
X145793989Y-96158540D01*
X145869352Y-96161383D01*
X145887459Y-96160978D01*
X145941278Y-96158325D01*
X145981308Y-96152909D01*
X146016324Y-96142745D01*
X146055103Y-96125850D01*
X146065745Y-96120672D01*
X146126396Y-96084844D01*
X146173215Y-96042212D01*
X146185952Y-96026973D01*
X146230622Y-95970462D01*
X146230622Y-95774586D01*
X146230086Y-95695939D01*
X146228396Y-95637988D01*
X146225428Y-95598875D01*
X146221057Y-95576741D01*
X146216972Y-95570274D01*
X146201047Y-95567111D01*
X146167264Y-95564488D01*
X146120340Y-95562655D01*
X146064993Y-95561857D01*
X146056106Y-95561842D01*
X145935330Y-95567096D01*
X145832660Y-95583263D01*
X145746106Y-95610961D01*
X145673681Y-95650808D01*
X145618751Y-95697758D01*
X145574204Y-95755645D01*
X145549480Y-95818693D01*
X145542248Y-95890282D01*
X144782310Y-95890282D01*
X144784178Y-95799712D01*
X144792522Y-95720812D01*
X144808768Y-95649590D01*
X144834405Y-95578864D01*
X144858401Y-95526493D01*
X144917020Y-95431196D01*
X144995117Y-95343170D01*
X145090315Y-95264017D01*
X145200238Y-95195340D01*
X145322510Y-95138741D01*
X145454755Y-95095821D01*
X145519422Y-95080882D01*
X145655604Y-95058777D01*
X145804049Y-95044194D01*
X145955505Y-95037813D01*
X146082064Y-95039445D01*
X146243950Y-95046224D01*
X146236530Y-94987245D01*
X146217238Y-94888092D01*
X146186104Y-94807372D01*
X146142269Y-94744466D01*
X146084871Y-94698756D01*
X146013048Y-94669622D01*
X145925941Y-94656447D01*
X145822686Y-94658611D01*
X145784711Y-94662612D01*
X145643520Y-94687780D01*
X145506707Y-94728814D01*
X145412178Y-94766815D01*
X145367018Y-94786190D01*
X145328585Y-94801760D01*
X145302234Y-94811405D01*
X145294546Y-94813452D01*
X145284802Y-94804374D01*
X145268083Y-94775405D01*
X145244232Y-94726217D01*
X145213093Y-94656484D01*
X145174507Y-94565879D01*
X145167910Y-94550089D01*
X145137853Y-94477772D01*
X145110874Y-94412425D01*
X145088136Y-94356906D01*
X145070806Y-94314072D01*
X145060048Y-94286781D01*
X145056941Y-94277942D01*
X145066940Y-94273187D01*
X145093217Y-94267910D01*
X145121489Y-94264231D01*
X145151646Y-94259474D01*
X145199433Y-94250028D01*
X145260612Y-94236820D01*
X145330946Y-94220776D01*
X145406194Y-94202820D01*
X145434755Y-94195797D01*
X145539816Y-94170209D01*
X145627480Y-94150147D01*
X145702068Y-94134969D01*
X145767903Y-94124035D01*
X145829307Y-94116704D01*
X145890602Y-94112335D01*
X145956110Y-94110287D01*
X146014128Y-94109889D01*
X146183574Y-94116552D01*
X146183574Y-94116552D01*
G37*
X146183574Y-94116552D02*
X146335492Y-94136567D01*
X146470756Y-94170202D01*
X146590239Y-94217725D01*
X146694815Y-94279405D01*
X146772424Y-94342965D01*
X146841265Y-94417099D01*
X146895006Y-94496871D01*
X146937910Y-94589091D01*
X146953384Y-94632161D01*
X146966244Y-94671142D01*
X146977446Y-94707289D01*
X146987120Y-94742434D01*
X146995396Y-94778410D01*
X147002403Y-94817050D01*
X147008272Y-94860185D01*
X147013131Y-94909649D01*
X147017110Y-94967273D01*
X147020340Y-95034891D01*
X147022949Y-95114334D01*
X147025067Y-95207436D01*
X147026824Y-95316027D01*
X147028349Y-95441942D01*
X147029772Y-95587012D01*
X147031025Y-95729778D01*
X147032351Y-95885968D01*
X147033556Y-96021239D01*
X147034766Y-96137246D01*
X147036106Y-96235645D01*
X147037700Y-96318093D01*
X147039675Y-96386246D01*
X147042156Y-96441760D01*
X147045269Y-96486292D01*
X147049138Y-96521498D01*
X147053889Y-96549034D01*
X147059648Y-96570556D01*
X147066539Y-96587722D01*
X147074689Y-96602186D01*
X147084223Y-96615606D01*
X147095266Y-96629638D01*
X147099566Y-96635071D01*
X147115386Y-96657910D01*
X147122422Y-96673463D01*
X147122444Y-96673922D01*
X147111567Y-96676121D01*
X147080582Y-96678147D01*
X147031957Y-96679942D01*
X146968163Y-96681451D01*
X146891669Y-96682616D01*
X146804944Y-96683380D01*
X146710457Y-96683686D01*
X146699550Y-96683689D01*
X146276657Y-96683689D01*
X146273395Y-96587622D01*
X146270133Y-96491556D01*
X146208044Y-96542543D01*
X146110714Y-96610057D01*
X146000813Y-96664749D01*
X145914349Y-96694978D01*
X145845278Y-96709666D01*
X145761925Y-96719659D01*
X145672159Y-96724646D01*
X145583845Y-96724313D01*
X145504851Y-96718351D01*
X145468622Y-96712638D01*
X145328603Y-96674776D01*
X145202178Y-96619932D01*
X145090260Y-96548924D01*
X144993762Y-96462568D01*
X144913600Y-96361679D01*
X144850687Y-96247076D01*
X144806312Y-96120984D01*
X144793978Y-96064401D01*
X144786368Y-96002202D01*
X144782739Y-95927363D01*
X144782245Y-95893467D01*
X144782310Y-95890282D01*
X145542248Y-95890282D01*
X145551541Y-95965333D01*
X145579728Y-96029160D01*
X145628197Y-96084798D01*
X145633254Y-96089211D01*
X145681548Y-96124037D01*
X145733257Y-96146620D01*
X145793989Y-96158540D01*
X145869352Y-96161383D01*
X145887459Y-96160978D01*
X145941278Y-96158325D01*
X145981308Y-96152909D01*
X146016324Y-96142745D01*
X146055103Y-96125850D01*
X146065745Y-96120672D01*
X146126396Y-96084844D01*
X146173215Y-96042212D01*
X146185952Y-96026973D01*
X146230622Y-95970462D01*
X146230622Y-95774586D01*
X146230086Y-95695939D01*
X146228396Y-95637988D01*
X146225428Y-95598875D01*
X146221057Y-95576741D01*
X146216972Y-95570274D01*
X146201047Y-95567111D01*
X146167264Y-95564488D01*
X146120340Y-95562655D01*
X146064993Y-95561857D01*
X146056106Y-95561842D01*
X145935330Y-95567096D01*
X145832660Y-95583263D01*
X145746106Y-95610961D01*
X145673681Y-95650808D01*
X145618751Y-95697758D01*
X145574204Y-95755645D01*
X145549480Y-95818693D01*
X145542248Y-95890282D01*
X144782310Y-95890282D01*
X144784178Y-95799712D01*
X144792522Y-95720812D01*
X144808768Y-95649590D01*
X144834405Y-95578864D01*
X144858401Y-95526493D01*
X144917020Y-95431196D01*
X144995117Y-95343170D01*
X145090315Y-95264017D01*
X145200238Y-95195340D01*
X145322510Y-95138741D01*
X145454755Y-95095821D01*
X145519422Y-95080882D01*
X145655604Y-95058777D01*
X145804049Y-95044194D01*
X145955505Y-95037813D01*
X146082064Y-95039445D01*
X146243950Y-95046224D01*
X146236530Y-94987245D01*
X146217238Y-94888092D01*
X146186104Y-94807372D01*
X146142269Y-94744466D01*
X146084871Y-94698756D01*
X146013048Y-94669622D01*
X145925941Y-94656447D01*
X145822686Y-94658611D01*
X145784711Y-94662612D01*
X145643520Y-94687780D01*
X145506707Y-94728814D01*
X145412178Y-94766815D01*
X145367018Y-94786190D01*
X145328585Y-94801760D01*
X145302234Y-94811405D01*
X145294546Y-94813452D01*
X145284802Y-94804374D01*
X145268083Y-94775405D01*
X145244232Y-94726217D01*
X145213093Y-94656484D01*
X145174507Y-94565879D01*
X145167910Y-94550089D01*
X145137853Y-94477772D01*
X145110874Y-94412425D01*
X145088136Y-94356906D01*
X145070806Y-94314072D01*
X145060048Y-94286781D01*
X145056941Y-94277942D01*
X145066940Y-94273187D01*
X145093217Y-94267910D01*
X145121489Y-94264231D01*
X145151646Y-94259474D01*
X145199433Y-94250028D01*
X145260612Y-94236820D01*
X145330946Y-94220776D01*
X145406194Y-94202820D01*
X145434755Y-94195797D01*
X145539816Y-94170209D01*
X145627480Y-94150147D01*
X145702068Y-94134969D01*
X145767903Y-94124035D01*
X145829307Y-94116704D01*
X145890602Y-94112335D01*
X145956110Y-94110287D01*
X146014128Y-94109889D01*
X146183574Y-94116552D01*
G36*
X143838429Y-93199071D02*
X143998570Y-93220245D01*
X144162510Y-93260385D01*
X144332313Y-93319889D01*
X144510043Y-93399154D01*
X144521310Y-93404699D01*
X144579005Y-93432725D01*
X144630552Y-93456802D01*
X144672191Y-93475249D01*
X144700162Y-93486386D01*
X144709733Y-93488933D01*
X144728950Y-93493941D01*
X144733561Y-93498147D01*
X144728458Y-93508580D01*
X144712418Y-93534868D01*
X144687288Y-93574257D01*
X144654914Y-93623991D01*
X144617143Y-93681315D01*
X144575822Y-93743476D01*
X144532798Y-93807718D01*
X144489917Y-93871285D01*
X144449026Y-93931425D01*
X144411971Y-93985380D01*
X144380600Y-94030397D01*
X144356759Y-94063721D01*
X144342294Y-94082597D01*
X144340309Y-94084787D01*
X144330191Y-94080138D01*
X144307850Y-94062962D01*
X144277280Y-94036440D01*
X144261536Y-94021964D01*
X144165047Y-93946682D01*
X144058336Y-93891241D01*
X143942832Y-93856141D01*
X143819962Y-93841880D01*
X143750561Y-93843051D01*
X143629423Y-93860212D01*
X143520205Y-93896094D01*
X143422582Y-93950959D01*
X143336228Y-94025070D01*
X143260815Y-94118688D01*
X143196018Y-94232076D01*
X143158601Y-94318667D01*
X143114748Y-94454366D01*
X143082428Y-94601850D01*
X143061557Y-94757314D01*
X143052051Y-94916956D01*
X143053827Y-95076973D01*
X143066803Y-95233561D01*
X143090894Y-95382918D01*
X143126018Y-95521240D01*
X143172092Y-95644724D01*
X143188373Y-95678978D01*
X143256620Y-95793064D01*
X143337079Y-95889557D01*
X143428570Y-95967670D01*
X143529911Y-96026617D01*
X143639920Y-96065612D01*
X143757415Y-96083868D01*
X143798883Y-96085211D01*
X143920441Y-96074290D01*
X144040878Y-96041474D01*
X144158666Y-95987439D01*
X144272277Y-95912865D01*
X144363685Y-95834539D01*
X144410215Y-95790008D01*
X144591483Y-96087271D01*
X144636580Y-96161433D01*
X144677819Y-96229646D01*
X144713735Y-96289459D01*
X144742866Y-96338420D01*
X144763750Y-96374079D01*
X144774924Y-96393984D01*
X144776375Y-96397079D01*
X144768146Y-96406718D01*
X144742567Y-96423999D01*
X144702873Y-96447283D01*
X144652297Y-96474934D01*
X144594074Y-96505315D01*
X144531437Y-96536790D01*
X144467621Y-96567722D01*
X144405860Y-96596473D01*
X144349388Y-96621408D01*
X144301438Y-96640889D01*
X144277986Y-96649318D01*
X144144221Y-96687133D01*
X144006327Y-96712136D01*
X143858622Y-96725140D01*
X143731833Y-96727468D01*
X143663878Y-96726373D01*
X143598277Y-96724275D01*
X143540847Y-96721434D01*
X143497403Y-96718106D01*
X143483298Y-96716422D01*
X143344284Y-96687587D01*
X143202757Y-96642468D01*
X143065275Y-96583750D01*
X142938394Y-96514120D01*
X142860889Y-96461441D01*
X142733481Y-96353239D01*
X142615178Y-96226671D01*
X142508172Y-96084866D01*
X142414652Y-95930951D01*
X142336810Y-95768053D01*
X142292956Y-95650756D01*
X142242708Y-95467128D01*
X142209209Y-95272581D01*
X142192449Y-95071325D01*
X142192416Y-94867568D01*
X142209101Y-94665521D01*
X142242493Y-94469392D01*
X142292580Y-94283391D01*
X142296397Y-94271803D01*
X142359281Y-94109750D01*
X142436028Y-93961832D01*
X142529242Y-93823865D01*
X142641527Y-93691661D01*
X142685392Y-93646399D01*
X142821534Y-93522457D01*
X142961491Y-93419915D01*
X143107411Y-93337656D01*
X143261442Y-93274564D01*
X143425732Y-93229523D01*
X143521289Y-93212033D01*
X143680023Y-93196466D01*
X143838429Y-93199071D01*
X143838429Y-93199071D01*
G37*
X143838429Y-93199071D02*
X143998570Y-93220245D01*
X144162510Y-93260385D01*
X144332313Y-93319889D01*
X144510043Y-93399154D01*
X144521310Y-93404699D01*
X144579005Y-93432725D01*
X144630552Y-93456802D01*
X144672191Y-93475249D01*
X144700162Y-93486386D01*
X144709733Y-93488933D01*
X144728950Y-93493941D01*
X144733561Y-93498147D01*
X144728458Y-93508580D01*
X144712418Y-93534868D01*
X144687288Y-93574257D01*
X144654914Y-93623991D01*
X144617143Y-93681315D01*
X144575822Y-93743476D01*
X144532798Y-93807718D01*
X144489917Y-93871285D01*
X144449026Y-93931425D01*
X144411971Y-93985380D01*
X144380600Y-94030397D01*
X144356759Y-94063721D01*
X144342294Y-94082597D01*
X144340309Y-94084787D01*
X144330191Y-94080138D01*
X144307850Y-94062962D01*
X144277280Y-94036440D01*
X144261536Y-94021964D01*
X144165047Y-93946682D01*
X144058336Y-93891241D01*
X143942832Y-93856141D01*
X143819962Y-93841880D01*
X143750561Y-93843051D01*
X143629423Y-93860212D01*
X143520205Y-93896094D01*
X143422582Y-93950959D01*
X143336228Y-94025070D01*
X143260815Y-94118688D01*
X143196018Y-94232076D01*
X143158601Y-94318667D01*
X143114748Y-94454366D01*
X143082428Y-94601850D01*
X143061557Y-94757314D01*
X143052051Y-94916956D01*
X143053827Y-95076973D01*
X143066803Y-95233561D01*
X143090894Y-95382918D01*
X143126018Y-95521240D01*
X143172092Y-95644724D01*
X143188373Y-95678978D01*
X143256620Y-95793064D01*
X143337079Y-95889557D01*
X143428570Y-95967670D01*
X143529911Y-96026617D01*
X143639920Y-96065612D01*
X143757415Y-96083868D01*
X143798883Y-96085211D01*
X143920441Y-96074290D01*
X144040878Y-96041474D01*
X144158666Y-95987439D01*
X144272277Y-95912865D01*
X144363685Y-95834539D01*
X144410215Y-95790008D01*
X144591483Y-96087271D01*
X144636580Y-96161433D01*
X144677819Y-96229646D01*
X144713735Y-96289459D01*
X144742866Y-96338420D01*
X144763750Y-96374079D01*
X144774924Y-96393984D01*
X144776375Y-96397079D01*
X144768146Y-96406718D01*
X144742567Y-96423999D01*
X144702873Y-96447283D01*
X144652297Y-96474934D01*
X144594074Y-96505315D01*
X144531437Y-96536790D01*
X144467621Y-96567722D01*
X144405860Y-96596473D01*
X144349388Y-96621408D01*
X144301438Y-96640889D01*
X144277986Y-96649318D01*
X144144221Y-96687133D01*
X144006327Y-96712136D01*
X143858622Y-96725140D01*
X143731833Y-96727468D01*
X143663878Y-96726373D01*
X143598277Y-96724275D01*
X143540847Y-96721434D01*
X143497403Y-96718106D01*
X143483298Y-96716422D01*
X143344284Y-96687587D01*
X143202757Y-96642468D01*
X143065275Y-96583750D01*
X142938394Y-96514120D01*
X142860889Y-96461441D01*
X142733481Y-96353239D01*
X142615178Y-96226671D01*
X142508172Y-96084866D01*
X142414652Y-95930951D01*
X142336810Y-95768053D01*
X142292956Y-95650756D01*
X142242708Y-95467128D01*
X142209209Y-95272581D01*
X142192449Y-95071325D01*
X142192416Y-94867568D01*
X142209101Y-94665521D01*
X142242493Y-94469392D01*
X142292580Y-94283391D01*
X142296397Y-94271803D01*
X142359281Y-94109750D01*
X142436028Y-93961832D01*
X142529242Y-93823865D01*
X142641527Y-93691661D01*
X142685392Y-93646399D01*
X142821534Y-93522457D01*
X142961491Y-93419915D01*
X143107411Y-93337656D01*
X143261442Y-93274564D01*
X143425732Y-93229523D01*
X143521289Y-93212033D01*
X143680023Y-93196466D01*
X143838429Y-93199071D01*
G36*
X140563600Y-92739054D02*
X140574465Y-92852993D01*
X140606082Y-92960616D01*
X140656985Y-93059615D01*
X140725707Y-93147684D01*
X140810781Y-93222516D01*
X140907768Y-93280384D01*
X141014036Y-93320005D01*
X141121050Y-93338573D01*
X141226700Y-93337434D01*
X141328875Y-93317930D01*
X141425466Y-93281406D01*
X141514362Y-93229205D01*
X141593454Y-93162673D01*
X141660631Y-93083152D01*
X141713783Y-92991987D01*
X141750801Y-92890523D01*
X141769573Y-92780102D01*
X141771511Y-92730206D01*
X141771511Y-92642267D01*
X141823440Y-92642267D01*
X141859747Y-92645111D01*
X141886645Y-92656911D01*
X141913751Y-92680649D01*
X141952133Y-92719031D01*
X141952133Y-94910602D01*
X141952124Y-95172739D01*
X141952092Y-95413241D01*
X141952028Y-95633048D01*
X141951924Y-95833101D01*
X141951773Y-96014344D01*
X141951566Y-96177716D01*
X141951294Y-96324160D01*
X141950950Y-96454617D01*
X141950526Y-96570029D01*
X141950013Y-96671338D01*
X141949403Y-96759484D01*
X141948688Y-96835410D01*
X141947860Y-96900057D01*
X141946911Y-96954367D01*
X141945833Y-96999280D01*
X141944617Y-97035740D01*
X141943255Y-97064687D01*
X141941739Y-97087063D01*
X141940062Y-97103809D01*
X141938214Y-97115868D01*
X141936187Y-97124180D01*
X141933975Y-97129687D01*
X141932892Y-97131537D01*
X141928729Y-97138549D01*
X141925195Y-97144996D01*
X141921365Y-97150900D01*
X141916318Y-97156286D01*
X141909129Y-97161178D01*
X141898877Y-97165598D01*
X141884636Y-97169572D01*
X141865486Y-97173121D01*
X141840501Y-97176270D01*
X141808760Y-97179042D01*
X141769338Y-97181461D01*
X141721314Y-97183551D01*
X141663763Y-97185335D01*
X141595763Y-97186837D01*
X141516390Y-97188080D01*
X141424721Y-97189089D01*
X141319834Y-97189885D01*
X141200804Y-97190494D01*
X141066710Y-97190939D01*
X140916627Y-97191243D01*
X140749633Y-97191430D01*
X140564804Y-97191524D01*
X140361217Y-97191548D01*
X140137950Y-97191525D01*
X139894078Y-97191480D01*
X139628679Y-97191437D01*
X139590296Y-97191432D01*
X139323318Y-97191389D01*
X139077998Y-97191318D01*
X138853417Y-97191213D01*
X138648655Y-97191066D01*
X138462794Y-97190869D01*
X138294912Y-97190616D01*
X138144092Y-97190300D01*
X138009413Y-97189913D01*
X137889956Y-97189447D01*
X137784801Y-97188897D01*
X137693029Y-97188253D01*
X137613721Y-97187511D01*
X137545957Y-97186661D01*
X137488818Y-97185697D01*
X137441383Y-97184611D01*
X137402734Y-97183397D01*
X137371951Y-97182047D01*
X137348115Y-97180555D01*
X137330306Y-97178911D01*
X137317605Y-97177111D01*
X137309092Y-97175145D01*
X137304734Y-97173477D01*
X137296272Y-97169906D01*
X137288503Y-97167270D01*
X137281398Y-97164634D01*
X137274927Y-97161062D01*
X137269061Y-97155621D01*
X137263771Y-97147375D01*
X137259026Y-97135390D01*
X137254798Y-97118731D01*
X137251057Y-97096463D01*
X137247773Y-97067652D01*
X137244917Y-97031363D01*
X137242460Y-96986661D01*
X137240371Y-96932611D01*
X137238622Y-96868279D01*
X137237183Y-96792730D01*
X137236024Y-96705030D01*
X137235117Y-96604243D01*
X137234431Y-96489434D01*
X137233937Y-96359670D01*
X137233605Y-96214015D01*
X137233407Y-96051535D01*
X137233313Y-95871295D01*
X137233292Y-95672360D01*
X137233315Y-95453796D01*
X137233354Y-95214668D01*
X137233378Y-94954040D01*
X137233378Y-94911889D01*
X137233364Y-94648992D01*
X137233339Y-94407732D01*
X137233329Y-94187165D01*
X137233358Y-93986352D01*
X137233452Y-93804349D01*
X137233638Y-93640216D01*
X137233941Y-93493011D01*
X137234386Y-93361792D01*
X137234966Y-93251867D01*
X137537803Y-93251867D01*
X137577593Y-93309711D01*
X137588764Y-93325479D01*
X137598834Y-93339441D01*
X137607862Y-93352784D01*
X137615903Y-93366693D01*
X137623014Y-93382356D01*
X137629253Y-93400958D01*
X137634675Y-93423686D01*
X137639338Y-93451727D01*
X137643299Y-93486267D01*
X137646615Y-93528492D01*
X137649341Y-93579589D01*
X137651536Y-93640744D01*
X137653255Y-93713144D01*
X137654556Y-93797975D01*
X137655495Y-93896422D01*
X137656130Y-94009674D01*
X137656516Y-94138916D01*
X137656712Y-94285334D01*
X137656773Y-94450116D01*
X137656757Y-94634447D01*
X137656720Y-94839513D01*
X137656711Y-94962133D01*
X137656735Y-95179082D01*
X137656769Y-95374642D01*
X137656757Y-95549999D01*
X137656642Y-95706341D01*
X137656370Y-95844857D01*
X137655882Y-95966734D01*
X137655124Y-96073160D01*
X137654038Y-96165322D01*
X137652569Y-96244409D01*
X137650660Y-96311608D01*
X137648256Y-96368107D01*
X137645299Y-96415093D01*
X137641734Y-96453755D01*
X137637505Y-96485280D01*
X137632554Y-96510855D01*
X137626827Y-96531670D01*
X137620267Y-96548911D01*
X137612817Y-96563765D01*
X137604421Y-96577422D01*
X137595024Y-96591069D01*
X137584568Y-96605893D01*
X137578477Y-96614783D01*
X137539704Y-96672400D01*
X138071268Y-96672400D01*
X138194517Y-96672365D01*
X138297013Y-96672215D01*
X138380580Y-96671878D01*
X138447044Y-96671286D01*
X138498229Y-96670367D01*
X138535959Y-96669051D01*
X138562060Y-96667269D01*
X138578356Y-96664951D01*
X138586672Y-96662026D01*
X138588832Y-96658424D01*
X138586661Y-96654075D01*
X138585465Y-96652645D01*
X138560315Y-96615573D01*
X138534417Y-96562772D01*
X138510808Y-96500770D01*
X138502539Y-96474357D01*
X138497922Y-96456416D01*
X138494021Y-96435355D01*
X138490752Y-96409089D01*
X138488034Y-96375532D01*
X138485785Y-96332599D01*
X138483923Y-96278204D01*
X138482364Y-96210262D01*
X138481028Y-96126688D01*
X138479831Y-96025395D01*
X138478692Y-95904300D01*
X138478315Y-95859600D01*
X138477298Y-95734449D01*
X138476540Y-95630082D01*
X138476097Y-95544707D01*
X138476030Y-95476533D01*
X138476395Y-95423765D01*
X138477252Y-95384614D01*
X138478659Y-95357285D01*
X138480675Y-95339986D01*
X138483357Y-95330926D01*
X138486764Y-95328312D01*
X138490956Y-95330351D01*
X138495429Y-95334667D01*
X138505784Y-95347602D01*
X138527842Y-95376676D01*
X138560043Y-95419759D01*
X138600826Y-95474718D01*
X138648630Y-95539423D01*
X138701895Y-95611742D01*
X138759060Y-95689544D01*
X138818563Y-95770698D01*
X138878845Y-95853072D01*
X138938345Y-95934536D01*
X138995502Y-96012957D01*
X139048755Y-96086204D01*
X139096543Y-96152147D01*
X139137307Y-96208654D01*
X139169484Y-96253593D01*
X139191515Y-96284834D01*
X139196083Y-96291466D01*
X139219004Y-96328369D01*
X139245812Y-96376359D01*
X139271211Y-96425897D01*
X139274432Y-96432577D01*
X139296110Y-96480772D01*
X139308696Y-96518334D01*
X139314426Y-96554160D01*
X139315544Y-96596200D01*
X139314910Y-96672400D01*
X140469349Y-96672400D01*
X140378185Y-96578669D01*
X140331388Y-96528775D01*
X140281101Y-96472295D01*
X140235056Y-96418026D01*
X140214631Y-96392673D01*
X140184193Y-96353128D01*
X140144138Y-96299916D01*
X140095639Y-96234667D01*
X140039865Y-96159011D01*
X139977989Y-96074577D01*
X139911181Y-95982994D01*
X139840613Y-95885892D01*
X139767455Y-95784901D01*
X139692879Y-95681650D01*
X139618056Y-95577768D01*
X139544157Y-95474885D01*
X139472354Y-95374631D01*
X139403816Y-95278636D01*
X139339716Y-95188527D01*
X139281225Y-95105936D01*
X139229514Y-95032492D01*
X139185753Y-94969824D01*
X139151115Y-94919561D01*
X139126770Y-94883334D01*
X139113889Y-94862771D01*
X139112131Y-94858668D01*
X139120090Y-94847342D01*
X139140885Y-94820162D01*
X139173153Y-94778829D01*
X139215530Y-94725044D01*
X139266653Y-94660506D01*
X139325159Y-94586918D01*
X139389686Y-94505978D01*
X139458869Y-94419388D01*
X139531347Y-94328848D01*
X139605754Y-94236060D01*
X139665483Y-94161702D01*
X140676489Y-94161702D01*
X140682398Y-94174659D01*
X140696728Y-94196908D01*
X140697775Y-94198391D01*
X140716562Y-94228544D01*
X140736209Y-94265375D01*
X140740108Y-94273511D01*
X140743644Y-94281940D01*
X140746770Y-94292059D01*
X140749514Y-94305260D01*
X140751908Y-94322938D01*
X140753981Y-94346484D01*
X140755765Y-94377293D01*
X140757288Y-94416757D01*
X140758581Y-94466269D01*
X140759674Y-94527223D01*
X140760597Y-94601011D01*
X140761381Y-94689028D01*
X140762055Y-94792665D01*
X140762650Y-94913316D01*
X140763195Y-95052374D01*
X140763721Y-95211232D01*
X140764255Y-95390089D01*
X140764794Y-95575207D01*
X140765228Y-95739145D01*
X140765491Y-95883303D01*
X140765516Y-96009079D01*
X140765235Y-96117871D01*
X140764581Y-96211077D01*
X140763486Y-96290097D01*
X140761882Y-96356328D01*
X140759703Y-96411170D01*
X140756881Y-96456021D01*
X140753349Y-96492278D01*
X140749039Y-96521341D01*
X140743883Y-96544609D01*
X140737815Y-96563479D01*
X140730767Y-96579351D01*
X140722671Y-96593622D01*
X140713460Y-96607691D01*
X140704960Y-96620158D01*
X140687824Y-96646452D01*
X140677678Y-96664037D01*
X140676489Y-96667257D01*
X140687396Y-96668334D01*
X140718589Y-96669335D01*
X140767777Y-96670235D01*
X140832667Y-96671010D01*
X140910970Y-96671637D01*
X141000393Y-96672091D01*
X141098644Y-96672349D01*
X141167555Y-96672400D01*
X141272548Y-96672180D01*
X141369390Y-96671548D01*
X141455893Y-96670549D01*
X141529868Y-96669227D01*
X141589126Y-96667626D01*
X141631480Y-96665791D01*
X141654740Y-96663765D01*
X141658622Y-96662493D01*
X141650924Y-96647591D01*
X141642926Y-96639560D01*
X141629754Y-96622434D01*
X141612515Y-96592183D01*
X141600593Y-96567622D01*
X141573955Y-96508711D01*
X141570880Y-95331845D01*
X141567805Y-94154978D01*
X141122147Y-94154978D01*
X141024330Y-94155142D01*
X140933936Y-94155611D01*
X140853370Y-94156347D01*
X140785038Y-94157316D01*
X140731344Y-94158480D01*
X140694695Y-94159803D01*
X140677496Y-94161249D01*
X140676489Y-94161702D01*
X139665483Y-94161702D01*
X139680730Y-94142722D01*
X139754910Y-94050537D01*
X139826931Y-93961204D01*
X139895431Y-93876424D01*
X139959045Y-93797898D01*
X140016412Y-93727326D01*
X140066167Y-93666409D01*
X140106948Y-93616847D01*
X140124112Y-93596178D01*
X140210404Y-93495516D01*
X140287003Y-93412259D01*
X140355817Y-93344438D01*
X140418752Y-93290089D01*
X140428133Y-93282722D01*
X140467644Y-93252117D01*
X139335884Y-93251867D01*
X139341173Y-93299844D01*
X139337870Y-93357188D01*
X139316339Y-93425463D01*
X139276365Y-93505212D01*
X139231057Y-93577495D01*
X139214839Y-93600140D01*
X139186786Y-93637696D01*
X139148570Y-93688021D01*
X139101863Y-93748973D01*
X139048339Y-93818411D01*
X138989669Y-93894194D01*
X138927525Y-93974180D01*
X138863579Y-94056228D01*
X138799505Y-94138196D01*
X138736973Y-94217943D01*
X138677657Y-94293327D01*
X138623229Y-94362207D01*
X138575361Y-94422442D01*
X138535725Y-94471889D01*
X138505994Y-94508408D01*
X138487839Y-94529858D01*
X138484780Y-94533156D01*
X138481921Y-94525149D01*
X138479707Y-94494855D01*
X138478143Y-94442556D01*
X138477233Y-94368531D01*
X138476980Y-94273063D01*
X138477387Y-94156434D01*
X138478296Y-94036445D01*
X138479618Y-93904333D01*
X138481143Y-93792594D01*
X138483119Y-93699025D01*
X138485794Y-93621419D01*
X138489418Y-93557574D01*
X138494239Y-93505283D01*
X138500506Y-93462344D01*
X138508468Y-93426551D01*
X138518373Y-93395700D01*
X138530469Y-93367586D01*
X138545007Y-93340005D01*
X138559689Y-93314966D01*
X138597686Y-93251867D01*
X137537803Y-93251867D01*
X137234966Y-93251867D01*
X137234999Y-93245617D01*
X137235805Y-93143544D01*
X137236830Y-93054633D01*
X137238100Y-92977941D01*
X137239640Y-92912527D01*
X137241476Y-92857449D01*
X137243633Y-92811765D01*
X137246137Y-92774534D01*
X137249013Y-92744813D01*
X137252287Y-92721662D01*
X137255985Y-92704139D01*
X137260131Y-92691301D01*
X137264753Y-92682208D01*
X137269874Y-92675918D01*
X137275522Y-92671488D01*
X137281721Y-92667978D01*
X137288496Y-92664445D01*
X137294492Y-92660876D01*
X137299725Y-92658300D01*
X137307901Y-92655972D01*
X137320114Y-92653878D01*
X137337459Y-92652007D01*
X137361031Y-92650347D01*
X137391923Y-92648884D01*
X137431232Y-92647608D01*
X137480050Y-92646504D01*
X137539473Y-92645561D01*
X137610596Y-92644767D01*
X137694512Y-92644109D01*
X137792317Y-92643575D01*
X137905106Y-92643153D01*
X138033971Y-92642829D01*
X138180009Y-92642592D01*
X138344314Y-92642430D01*
X138527980Y-92642330D01*
X138732103Y-92642280D01*
X138943247Y-92642267D01*
X140563600Y-92642267D01*
X140563600Y-92739054D01*
X140563600Y-92739054D01*
G37*
X140563600Y-92739054D02*
X140574465Y-92852993D01*
X140606082Y-92960616D01*
X140656985Y-93059615D01*
X140725707Y-93147684D01*
X140810781Y-93222516D01*
X140907768Y-93280384D01*
X141014036Y-93320005D01*
X141121050Y-93338573D01*
X141226700Y-93337434D01*
X141328875Y-93317930D01*
X141425466Y-93281406D01*
X141514362Y-93229205D01*
X141593454Y-93162673D01*
X141660631Y-93083152D01*
X141713783Y-92991987D01*
X141750801Y-92890523D01*
X141769573Y-92780102D01*
X141771511Y-92730206D01*
X141771511Y-92642267D01*
X141823440Y-92642267D01*
X141859747Y-92645111D01*
X141886645Y-92656911D01*
X141913751Y-92680649D01*
X141952133Y-92719031D01*
X141952133Y-94910602D01*
X141952124Y-95172739D01*
X141952092Y-95413241D01*
X141952028Y-95633048D01*
X141951924Y-95833101D01*
X141951773Y-96014344D01*
X141951566Y-96177716D01*
X141951294Y-96324160D01*
X141950950Y-96454617D01*
X141950526Y-96570029D01*
X141950013Y-96671338D01*
X141949403Y-96759484D01*
X141948688Y-96835410D01*
X141947860Y-96900057D01*
X141946911Y-96954367D01*
X141945833Y-96999280D01*
X141944617Y-97035740D01*
X141943255Y-97064687D01*
X141941739Y-97087063D01*
X141940062Y-97103809D01*
X141938214Y-97115868D01*
X141936187Y-97124180D01*
X141933975Y-97129687D01*
X141932892Y-97131537D01*
X141928729Y-97138549D01*
X141925195Y-97144996D01*
X141921365Y-97150900D01*
X141916318Y-97156286D01*
X141909129Y-97161178D01*
X141898877Y-97165598D01*
X141884636Y-97169572D01*
X141865486Y-97173121D01*
X141840501Y-97176270D01*
X141808760Y-97179042D01*
X141769338Y-97181461D01*
X141721314Y-97183551D01*
X141663763Y-97185335D01*
X141595763Y-97186837D01*
X141516390Y-97188080D01*
X141424721Y-97189089D01*
X141319834Y-97189885D01*
X141200804Y-97190494D01*
X141066710Y-97190939D01*
X140916627Y-97191243D01*
X140749633Y-97191430D01*
X140564804Y-97191524D01*
X140361217Y-97191548D01*
X140137950Y-97191525D01*
X139894078Y-97191480D01*
X139628679Y-97191437D01*
X139590296Y-97191432D01*
X139323318Y-97191389D01*
X139077998Y-97191318D01*
X138853417Y-97191213D01*
X138648655Y-97191066D01*
X138462794Y-97190869D01*
X138294912Y-97190616D01*
X138144092Y-97190300D01*
X138009413Y-97189913D01*
X137889956Y-97189447D01*
X137784801Y-97188897D01*
X137693029Y-97188253D01*
X137613721Y-97187511D01*
X137545957Y-97186661D01*
X137488818Y-97185697D01*
X137441383Y-97184611D01*
X137402734Y-97183397D01*
X137371951Y-97182047D01*
X137348115Y-97180555D01*
X137330306Y-97178911D01*
X137317605Y-97177111D01*
X137309092Y-97175145D01*
X137304734Y-97173477D01*
X137296272Y-97169906D01*
X137288503Y-97167270D01*
X137281398Y-97164634D01*
X137274927Y-97161062D01*
X137269061Y-97155621D01*
X137263771Y-97147375D01*
X137259026Y-97135390D01*
X137254798Y-97118731D01*
X137251057Y-97096463D01*
X137247773Y-97067652D01*
X137244917Y-97031363D01*
X137242460Y-96986661D01*
X137240371Y-96932611D01*
X137238622Y-96868279D01*
X137237183Y-96792730D01*
X137236024Y-96705030D01*
X137235117Y-96604243D01*
X137234431Y-96489434D01*
X137233937Y-96359670D01*
X137233605Y-96214015D01*
X137233407Y-96051535D01*
X137233313Y-95871295D01*
X137233292Y-95672360D01*
X137233315Y-95453796D01*
X137233354Y-95214668D01*
X137233378Y-94954040D01*
X137233378Y-94911889D01*
X137233364Y-94648992D01*
X137233339Y-94407732D01*
X137233329Y-94187165D01*
X137233358Y-93986352D01*
X137233452Y-93804349D01*
X137233638Y-93640216D01*
X137233941Y-93493011D01*
X137234386Y-93361792D01*
X137234966Y-93251867D01*
X137537803Y-93251867D01*
X137577593Y-93309711D01*
X137588764Y-93325479D01*
X137598834Y-93339441D01*
X137607862Y-93352784D01*
X137615903Y-93366693D01*
X137623014Y-93382356D01*
X137629253Y-93400958D01*
X137634675Y-93423686D01*
X137639338Y-93451727D01*
X137643299Y-93486267D01*
X137646615Y-93528492D01*
X137649341Y-93579589D01*
X137651536Y-93640744D01*
X137653255Y-93713144D01*
X137654556Y-93797975D01*
X137655495Y-93896422D01*
X137656130Y-94009674D01*
X137656516Y-94138916D01*
X137656712Y-94285334D01*
X137656773Y-94450116D01*
X137656757Y-94634447D01*
X137656720Y-94839513D01*
X137656711Y-94962133D01*
X137656735Y-95179082D01*
X137656769Y-95374642D01*
X137656757Y-95549999D01*
X137656642Y-95706341D01*
X137656370Y-95844857D01*
X137655882Y-95966734D01*
X137655124Y-96073160D01*
X137654038Y-96165322D01*
X137652569Y-96244409D01*
X137650660Y-96311608D01*
X137648256Y-96368107D01*
X137645299Y-96415093D01*
X137641734Y-96453755D01*
X137637505Y-96485280D01*
X137632554Y-96510855D01*
X137626827Y-96531670D01*
X137620267Y-96548911D01*
X137612817Y-96563765D01*
X137604421Y-96577422D01*
X137595024Y-96591069D01*
X137584568Y-96605893D01*
X137578477Y-96614783D01*
X137539704Y-96672400D01*
X138071268Y-96672400D01*
X138194517Y-96672365D01*
X138297013Y-96672215D01*
X138380580Y-96671878D01*
X138447044Y-96671286D01*
X138498229Y-96670367D01*
X138535959Y-96669051D01*
X138562060Y-96667269D01*
X138578356Y-96664951D01*
X138586672Y-96662026D01*
X138588832Y-96658424D01*
X138586661Y-96654075D01*
X138585465Y-96652645D01*
X138560315Y-96615573D01*
X138534417Y-96562772D01*
X138510808Y-96500770D01*
X138502539Y-96474357D01*
X138497922Y-96456416D01*
X138494021Y-96435355D01*
X138490752Y-96409089D01*
X138488034Y-96375532D01*
X138485785Y-96332599D01*
X138483923Y-96278204D01*
X138482364Y-96210262D01*
X138481028Y-96126688D01*
X138479831Y-96025395D01*
X138478692Y-95904300D01*
X138478315Y-95859600D01*
X138477298Y-95734449D01*
X138476540Y-95630082D01*
X138476097Y-95544707D01*
X138476030Y-95476533D01*
X138476395Y-95423765D01*
X138477252Y-95384614D01*
X138478659Y-95357285D01*
X138480675Y-95339986D01*
X138483357Y-95330926D01*
X138486764Y-95328312D01*
X138490956Y-95330351D01*
X138495429Y-95334667D01*
X138505784Y-95347602D01*
X138527842Y-95376676D01*
X138560043Y-95419759D01*
X138600826Y-95474718D01*
X138648630Y-95539423D01*
X138701895Y-95611742D01*
X138759060Y-95689544D01*
X138818563Y-95770698D01*
X138878845Y-95853072D01*
X138938345Y-95934536D01*
X138995502Y-96012957D01*
X139048755Y-96086204D01*
X139096543Y-96152147D01*
X139137307Y-96208654D01*
X139169484Y-96253593D01*
X139191515Y-96284834D01*
X139196083Y-96291466D01*
X139219004Y-96328369D01*
X139245812Y-96376359D01*
X139271211Y-96425897D01*
X139274432Y-96432577D01*
X139296110Y-96480772D01*
X139308696Y-96518334D01*
X139314426Y-96554160D01*
X139315544Y-96596200D01*
X139314910Y-96672400D01*
X140469349Y-96672400D01*
X140378185Y-96578669D01*
X140331388Y-96528775D01*
X140281101Y-96472295D01*
X140235056Y-96418026D01*
X140214631Y-96392673D01*
X140184193Y-96353128D01*
X140144138Y-96299916D01*
X140095639Y-96234667D01*
X140039865Y-96159011D01*
X139977989Y-96074577D01*
X139911181Y-95982994D01*
X139840613Y-95885892D01*
X139767455Y-95784901D01*
X139692879Y-95681650D01*
X139618056Y-95577768D01*
X139544157Y-95474885D01*
X139472354Y-95374631D01*
X139403816Y-95278636D01*
X139339716Y-95188527D01*
X139281225Y-95105936D01*
X139229514Y-95032492D01*
X139185753Y-94969824D01*
X139151115Y-94919561D01*
X139126770Y-94883334D01*
X139113889Y-94862771D01*
X139112131Y-94858668D01*
X139120090Y-94847342D01*
X139140885Y-94820162D01*
X139173153Y-94778829D01*
X139215530Y-94725044D01*
X139266653Y-94660506D01*
X139325159Y-94586918D01*
X139389686Y-94505978D01*
X139458869Y-94419388D01*
X139531347Y-94328848D01*
X139605754Y-94236060D01*
X139665483Y-94161702D01*
X140676489Y-94161702D01*
X140682398Y-94174659D01*
X140696728Y-94196908D01*
X140697775Y-94198391D01*
X140716562Y-94228544D01*
X140736209Y-94265375D01*
X140740108Y-94273511D01*
X140743644Y-94281940D01*
X140746770Y-94292059D01*
X140749514Y-94305260D01*
X140751908Y-94322938D01*
X140753981Y-94346484D01*
X140755765Y-94377293D01*
X140757288Y-94416757D01*
X140758581Y-94466269D01*
X140759674Y-94527223D01*
X140760597Y-94601011D01*
X140761381Y-94689028D01*
X140762055Y-94792665D01*
X140762650Y-94913316D01*
X140763195Y-95052374D01*
X140763721Y-95211232D01*
X140764255Y-95390089D01*
X140764794Y-95575207D01*
X140765228Y-95739145D01*
X140765491Y-95883303D01*
X140765516Y-96009079D01*
X140765235Y-96117871D01*
X140764581Y-96211077D01*
X140763486Y-96290097D01*
X140761882Y-96356328D01*
X140759703Y-96411170D01*
X140756881Y-96456021D01*
X140753349Y-96492278D01*
X140749039Y-96521341D01*
X140743883Y-96544609D01*
X140737815Y-96563479D01*
X140730767Y-96579351D01*
X140722671Y-96593622D01*
X140713460Y-96607691D01*
X140704960Y-96620158D01*
X140687824Y-96646452D01*
X140677678Y-96664037D01*
X140676489Y-96667257D01*
X140687396Y-96668334D01*
X140718589Y-96669335D01*
X140767777Y-96670235D01*
X140832667Y-96671010D01*
X140910970Y-96671637D01*
X141000393Y-96672091D01*
X141098644Y-96672349D01*
X141167555Y-96672400D01*
X141272548Y-96672180D01*
X141369390Y-96671548D01*
X141455893Y-96670549D01*
X141529868Y-96669227D01*
X141589126Y-96667626D01*
X141631480Y-96665791D01*
X141654740Y-96663765D01*
X141658622Y-96662493D01*
X141650924Y-96647591D01*
X141642926Y-96639560D01*
X141629754Y-96622434D01*
X141612515Y-96592183D01*
X141600593Y-96567622D01*
X141573955Y-96508711D01*
X141570880Y-95331845D01*
X141567805Y-94154978D01*
X141122147Y-94154978D01*
X141024330Y-94155142D01*
X140933936Y-94155611D01*
X140853370Y-94156347D01*
X140785038Y-94157316D01*
X140731344Y-94158480D01*
X140694695Y-94159803D01*
X140677496Y-94161249D01*
X140676489Y-94161702D01*
X139665483Y-94161702D01*
X139680730Y-94142722D01*
X139754910Y-94050537D01*
X139826931Y-93961204D01*
X139895431Y-93876424D01*
X139959045Y-93797898D01*
X140016412Y-93727326D01*
X140066167Y-93666409D01*
X140106948Y-93616847D01*
X140124112Y-93596178D01*
X140210404Y-93495516D01*
X140287003Y-93412259D01*
X140355817Y-93344438D01*
X140418752Y-93290089D01*
X140428133Y-93282722D01*
X140467644Y-93252117D01*
X139335884Y-93251867D01*
X139341173Y-93299844D01*
X139337870Y-93357188D01*
X139316339Y-93425463D01*
X139276365Y-93505212D01*
X139231057Y-93577495D01*
X139214839Y-93600140D01*
X139186786Y-93637696D01*
X139148570Y-93688021D01*
X139101863Y-93748973D01*
X139048339Y-93818411D01*
X138989669Y-93894194D01*
X138927525Y-93974180D01*
X138863579Y-94056228D01*
X138799505Y-94138196D01*
X138736973Y-94217943D01*
X138677657Y-94293327D01*
X138623229Y-94362207D01*
X138575361Y-94422442D01*
X138535725Y-94471889D01*
X138505994Y-94508408D01*
X138487839Y-94529858D01*
X138484780Y-94533156D01*
X138481921Y-94525149D01*
X138479707Y-94494855D01*
X138478143Y-94442556D01*
X138477233Y-94368531D01*
X138476980Y-94273063D01*
X138477387Y-94156434D01*
X138478296Y-94036445D01*
X138479618Y-93904333D01*
X138481143Y-93792594D01*
X138483119Y-93699025D01*
X138485794Y-93621419D01*
X138489418Y-93557574D01*
X138494239Y-93505283D01*
X138500506Y-93462344D01*
X138508468Y-93426551D01*
X138518373Y-93395700D01*
X138530469Y-93367586D01*
X138545007Y-93340005D01*
X138559689Y-93314966D01*
X138597686Y-93251867D01*
X137537803Y-93251867D01*
X137234966Y-93251867D01*
X137234999Y-93245617D01*
X137235805Y-93143544D01*
X137236830Y-93054633D01*
X137238100Y-92977941D01*
X137239640Y-92912527D01*
X137241476Y-92857449D01*
X137243633Y-92811765D01*
X137246137Y-92774534D01*
X137249013Y-92744813D01*
X137252287Y-92721662D01*
X137255985Y-92704139D01*
X137260131Y-92691301D01*
X137264753Y-92682208D01*
X137269874Y-92675918D01*
X137275522Y-92671488D01*
X137281721Y-92667978D01*
X137288496Y-92664445D01*
X137294492Y-92660876D01*
X137299725Y-92658300D01*
X137307901Y-92655972D01*
X137320114Y-92653878D01*
X137337459Y-92652007D01*
X137361031Y-92650347D01*
X137391923Y-92648884D01*
X137431232Y-92647608D01*
X137480050Y-92646504D01*
X137539473Y-92645561D01*
X137610596Y-92644767D01*
X137694512Y-92644109D01*
X137792317Y-92643575D01*
X137905106Y-92643153D01*
X138033971Y-92642829D01*
X138180009Y-92642592D01*
X138344314Y-92642430D01*
X138527980Y-92642330D01*
X138732103Y-92642280D01*
X138943247Y-92642267D01*
X140563600Y-92642267D01*
X140563600Y-92739054D01*
G36*
X149738823Y-97524533D02*
X149770202Y-97546776D01*
X149797911Y-97574485D01*
X149797911Y-97883920D01*
X149797838Y-97975799D01*
X149797495Y-98047840D01*
X149796692Y-98102780D01*
X149795241Y-98143360D01*
X149792952Y-98172317D01*
X149789636Y-98192391D01*
X149785105Y-98206321D01*
X149779169Y-98216845D01*
X149774514Y-98223100D01*
X149743783Y-98247673D01*
X149708496Y-98250341D01*
X149676245Y-98235271D01*
X149665588Y-98226374D01*
X149658464Y-98214557D01*
X149654167Y-98195526D01*
X149651991Y-98164992D01*
X149651228Y-98118662D01*
X149651155Y-98082871D01*
X149651155Y-97948045D01*
X149154444Y-97948045D01*
X149154444Y-98070700D01*
X149153931Y-98126787D01*
X149151876Y-98165333D01*
X149147508Y-98191361D01*
X149140056Y-98209897D01*
X149131047Y-98223100D01*
X149100144Y-98247604D01*
X149065196Y-98250506D01*
X149031738Y-98233089D01*
X149022604Y-98223959D01*
X149016152Y-98211855D01*
X149011897Y-98193001D01*
X149009352Y-98163620D01*
X149008029Y-98119937D01*
X149007443Y-98058175D01*
X149007375Y-98044000D01*
X149006891Y-97927631D01*
X149006641Y-97831727D01*
X149006723Y-97754177D01*
X149007231Y-97692869D01*
X149008262Y-97645690D01*
X149009913Y-97610530D01*
X149012279Y-97585276D01*
X149015457Y-97567817D01*
X149019544Y-97556041D01*
X149024634Y-97547835D01*
X149030266Y-97541645D01*
X149062128Y-97521844D01*
X149095357Y-97524533D01*
X149126735Y-97546776D01*
X149139433Y-97561126D01*
X149147526Y-97576978D01*
X149152042Y-97599554D01*
X149154006Y-97634078D01*
X149154444Y-97685776D01*
X149154444Y-97801289D01*
X149651155Y-97801289D01*
X149651155Y-97682756D01*
X149651662Y-97628148D01*
X149653698Y-97591275D01*
X149658035Y-97567307D01*
X149665447Y-97551415D01*
X149673733Y-97541645D01*
X149705594Y-97521844D01*
X149738823Y-97524533D01*
X149738823Y-97524533D01*
G37*
X149738823Y-97524533D02*
X149770202Y-97546776D01*
X149797911Y-97574485D01*
X149797911Y-97883920D01*
X149797838Y-97975799D01*
X149797495Y-98047840D01*
X149796692Y-98102780D01*
X149795241Y-98143360D01*
X149792952Y-98172317D01*
X149789636Y-98192391D01*
X149785105Y-98206321D01*
X149779169Y-98216845D01*
X149774514Y-98223100D01*
X149743783Y-98247673D01*
X149708496Y-98250341D01*
X149676245Y-98235271D01*
X149665588Y-98226374D01*
X149658464Y-98214557D01*
X149654167Y-98195526D01*
X149651991Y-98164992D01*
X149651228Y-98118662D01*
X149651155Y-98082871D01*
X149651155Y-97948045D01*
X149154444Y-97948045D01*
X149154444Y-98070700D01*
X149153931Y-98126787D01*
X149151876Y-98165333D01*
X149147508Y-98191361D01*
X149140056Y-98209897D01*
X149131047Y-98223100D01*
X149100144Y-98247604D01*
X149065196Y-98250506D01*
X149031738Y-98233089D01*
X149022604Y-98223959D01*
X149016152Y-98211855D01*
X149011897Y-98193001D01*
X149009352Y-98163620D01*
X149008029Y-98119937D01*
X149007443Y-98058175D01*
X149007375Y-98044000D01*
X149006891Y-97927631D01*
X149006641Y-97831727D01*
X149006723Y-97754177D01*
X149007231Y-97692869D01*
X149008262Y-97645690D01*
X149009913Y-97610530D01*
X149012279Y-97585276D01*
X149015457Y-97567817D01*
X149019544Y-97556041D01*
X149024634Y-97547835D01*
X149030266Y-97541645D01*
X149062128Y-97521844D01*
X149095357Y-97524533D01*
X149126735Y-97546776D01*
X149139433Y-97561126D01*
X149147526Y-97576978D01*
X149152042Y-97599554D01*
X149154006Y-97634078D01*
X149154444Y-97685776D01*
X149154444Y-97801289D01*
X149651155Y-97801289D01*
X149651155Y-97682756D01*
X149651662Y-97628148D01*
X149653698Y-97591275D01*
X149658035Y-97567307D01*
X149665447Y-97551415D01*
X149673733Y-97541645D01*
X149705594Y-97521844D01*
X149738823Y-97524533D01*
G36*
X148473065Y-97519163D02*
X148551772Y-97519542D01*
X148612863Y-97520333D01*
X148658817Y-97521670D01*
X148692114Y-97523683D01*
X148715236Y-97526506D01*
X148730662Y-97530269D01*
X148740871Y-97535105D01*
X148745813Y-97538822D01*
X148771457Y-97571358D01*
X148774559Y-97605138D01*
X148758711Y-97635826D01*
X148748348Y-97648089D01*
X148737196Y-97656450D01*
X148721035Y-97661657D01*
X148695642Y-97664457D01*
X148656798Y-97665596D01*
X148600280Y-97665821D01*
X148589180Y-97665822D01*
X148443244Y-97665822D01*
X148443244Y-97936756D01*
X148443148Y-98022154D01*
X148442711Y-98087864D01*
X148441712Y-98136774D01*
X148439928Y-98171773D01*
X148437137Y-98195749D01*
X148433117Y-98211593D01*
X148427645Y-98222191D01*
X148420666Y-98230267D01*
X148387734Y-98250112D01*
X148353354Y-98248548D01*
X148322176Y-98225906D01*
X148319886Y-98223100D01*
X148312429Y-98212492D01*
X148306747Y-98200081D01*
X148302601Y-98182850D01*
X148299750Y-98157784D01*
X148297954Y-98121867D01*
X148296972Y-98072083D01*
X148296564Y-98005417D01*
X148296489Y-97929589D01*
X148296489Y-97665822D01*
X148157127Y-97665822D01*
X148097322Y-97665418D01*
X148055918Y-97663840D01*
X148028748Y-97660547D01*
X148011646Y-97654992D01*
X148000443Y-97646631D01*
X147999083Y-97645178D01*
X147982725Y-97611939D01*
X147984172Y-97574362D01*
X148002978Y-97541645D01*
X148010250Y-97535298D01*
X148019627Y-97530266D01*
X148033609Y-97526396D01*
X148054696Y-97523537D01*
X148085389Y-97521535D01*
X148128189Y-97520239D01*
X148185595Y-97519498D01*
X148260110Y-97519158D01*
X148354233Y-97519068D01*
X148374260Y-97519067D01*
X148473065Y-97519163D01*
X148473065Y-97519163D01*
G37*
X148473065Y-97519163D02*
X148551772Y-97519542D01*
X148612863Y-97520333D01*
X148658817Y-97521670D01*
X148692114Y-97523683D01*
X148715236Y-97526506D01*
X148730662Y-97530269D01*
X148740871Y-97535105D01*
X148745813Y-97538822D01*
X148771457Y-97571358D01*
X148774559Y-97605138D01*
X148758711Y-97635826D01*
X148748348Y-97648089D01*
X148737196Y-97656450D01*
X148721035Y-97661657D01*
X148695642Y-97664457D01*
X148656798Y-97665596D01*
X148600280Y-97665821D01*
X148589180Y-97665822D01*
X148443244Y-97665822D01*
X148443244Y-97936756D01*
X148443148Y-98022154D01*
X148442711Y-98087864D01*
X148441712Y-98136774D01*
X148439928Y-98171773D01*
X148437137Y-98195749D01*
X148433117Y-98211593D01*
X148427645Y-98222191D01*
X148420666Y-98230267D01*
X148387734Y-98250112D01*
X148353354Y-98248548D01*
X148322176Y-98225906D01*
X148319886Y-98223100D01*
X148312429Y-98212492D01*
X148306747Y-98200081D01*
X148302601Y-98182850D01*
X148299750Y-98157784D01*
X148297954Y-98121867D01*
X148296972Y-98072083D01*
X148296564Y-98005417D01*
X148296489Y-97929589D01*
X148296489Y-97665822D01*
X148157127Y-97665822D01*
X148097322Y-97665418D01*
X148055918Y-97663840D01*
X148028748Y-97660547D01*
X148011646Y-97654992D01*
X148000443Y-97646631D01*
X147999083Y-97645178D01*
X147982725Y-97611939D01*
X147984172Y-97574362D01*
X148002978Y-97541645D01*
X148010250Y-97535298D01*
X148019627Y-97530266D01*
X148033609Y-97526396D01*
X148054696Y-97523537D01*
X148085389Y-97521535D01*
X148128189Y-97520239D01*
X148185595Y-97519498D01*
X148260110Y-97519158D01*
X148354233Y-97519068D01*
X148374260Y-97519067D01*
X148473065Y-97519163D01*
G36*
X147698614Y-97525877D02*
X147722327Y-97540647D01*
X147748978Y-97562227D01*
X147748978Y-97883773D01*
X147748893Y-97977830D01*
X147748529Y-98051932D01*
X147747724Y-98108704D01*
X147746313Y-98150768D01*
X147744133Y-98180748D01*
X147741021Y-98201267D01*
X147736814Y-98214949D01*
X147731348Y-98224416D01*
X147727472Y-98229082D01*
X147696034Y-98249575D01*
X147660233Y-98248739D01*
X147628873Y-98231264D01*
X147602222Y-98209684D01*
X147602222Y-97562227D01*
X147628873Y-97540647D01*
X147654594Y-97524949D01*
X147675600Y-97519067D01*
X147698614Y-97525877D01*
X147698614Y-97525877D01*
G37*
X147698614Y-97525877D02*
X147722327Y-97540647D01*
X147748978Y-97562227D01*
X147748978Y-97883773D01*
X147748893Y-97977830D01*
X147748529Y-98051932D01*
X147747724Y-98108704D01*
X147746313Y-98150768D01*
X147744133Y-98180748D01*
X147741021Y-98201267D01*
X147736814Y-98214949D01*
X147731348Y-98224416D01*
X147727472Y-98229082D01*
X147696034Y-98249575D01*
X147660233Y-98248739D01*
X147628873Y-98231264D01*
X147602222Y-98209684D01*
X147602222Y-97562227D01*
X147628873Y-97540647D01*
X147654594Y-97524949D01*
X147675600Y-97519067D01*
X147698614Y-97525877D01*
G36*
X147254665Y-97521034D02*
X147274255Y-97528035D01*
X147275010Y-97528377D01*
X147301613Y-97548678D01*
X147316270Y-97569561D01*
X147319138Y-97579352D01*
X147318996Y-97592361D01*
X147314961Y-97610895D01*
X147306146Y-97637257D01*
X147291669Y-97673752D01*
X147270645Y-97722687D01*
X147242188Y-97786365D01*
X147205415Y-97867093D01*
X147185175Y-97911216D01*
X147148625Y-97989985D01*
X147114315Y-98062423D01*
X147083552Y-98125880D01*
X147057648Y-98177708D01*
X147037910Y-98215259D01*
X147025650Y-98235884D01*
X147023224Y-98238733D01*
X146992183Y-98251302D01*
X146957121Y-98249619D01*
X146929000Y-98234332D01*
X146927854Y-98233089D01*
X146916668Y-98216154D01*
X146897904Y-98183170D01*
X146873875Y-98138380D01*
X146846897Y-98086032D01*
X146837201Y-98066742D01*
X146764014Y-97920150D01*
X146684240Y-98079393D01*
X146655767Y-98134415D01*
X146629350Y-98182132D01*
X146607148Y-98218893D01*
X146591319Y-98241044D01*
X146585954Y-98245741D01*
X146544257Y-98252102D01*
X146509849Y-98238733D01*
X146499728Y-98224446D01*
X146482214Y-98192692D01*
X146458735Y-98146597D01*
X146430720Y-98089285D01*
X146399599Y-98023880D01*
X146366799Y-97953507D01*
X146333750Y-97881291D01*
X146301881Y-97810355D01*
X146272619Y-97743825D01*
X146247395Y-97684826D01*
X146227636Y-97636481D01*
X146214772Y-97601915D01*
X146210231Y-97584253D01*
X146210277Y-97583613D01*
X146221326Y-97561388D01*
X146243410Y-97538753D01*
X146244710Y-97537768D01*
X146271853Y-97522425D01*
X146296958Y-97522574D01*
X146306368Y-97525466D01*
X146317834Y-97531718D01*
X146330010Y-97544014D01*
X146344357Y-97564908D01*
X146362336Y-97596949D01*
X146385407Y-97642688D01*
X146415030Y-97704677D01*
X146441745Y-97761898D01*
X146472480Y-97828226D01*
X146500021Y-97887874D01*
X146522938Y-97937725D01*
X146539798Y-97974664D01*
X146549173Y-97995573D01*
X146550540Y-97998845D01*
X146556689Y-97993497D01*
X146570822Y-97971109D01*
X146591057Y-97934946D01*
X146615515Y-97888277D01*
X146625248Y-97869022D01*
X146658217Y-97804004D01*
X146683643Y-97756654D01*
X146703612Y-97724219D01*
X146720210Y-97703946D01*
X146735524Y-97693082D01*
X146751640Y-97688875D01*
X146762143Y-97688400D01*
X146780670Y-97690042D01*
X146796904Y-97696831D01*
X146813035Y-97711566D01*
X146831251Y-97737044D01*
X146853739Y-97776061D01*
X146882689Y-97831414D01*
X146898662Y-97862903D01*
X146924570Y-97913087D01*
X146947167Y-97954704D01*
X146964458Y-97984242D01*
X146974450Y-97998189D01*
X146975809Y-97998770D01*
X146982261Y-97987793D01*
X146996708Y-97959290D01*
X147017703Y-97916244D01*
X147043797Y-97861638D01*
X147073546Y-97798454D01*
X147088180Y-97767071D01*
X147126250Y-97686078D01*
X147156905Y-97623756D01*
X147181737Y-97578071D01*
X147202337Y-97546989D01*
X147220298Y-97528478D01*
X147237210Y-97520504D01*
X147254665Y-97521034D01*
X147254665Y-97521034D01*
G37*
X147254665Y-97521034D02*
X147274255Y-97528035D01*
X147275010Y-97528377D01*
X147301613Y-97548678D01*
X147316270Y-97569561D01*
X147319138Y-97579352D01*
X147318996Y-97592361D01*
X147314961Y-97610895D01*
X147306146Y-97637257D01*
X147291669Y-97673752D01*
X147270645Y-97722687D01*
X147242188Y-97786365D01*
X147205415Y-97867093D01*
X147185175Y-97911216D01*
X147148625Y-97989985D01*
X147114315Y-98062423D01*
X147083552Y-98125880D01*
X147057648Y-98177708D01*
X147037910Y-98215259D01*
X147025650Y-98235884D01*
X147023224Y-98238733D01*
X146992183Y-98251302D01*
X146957121Y-98249619D01*
X146929000Y-98234332D01*
X146927854Y-98233089D01*
X146916668Y-98216154D01*
X146897904Y-98183170D01*
X146873875Y-98138380D01*
X146846897Y-98086032D01*
X146837201Y-98066742D01*
X146764014Y-97920150D01*
X146684240Y-98079393D01*
X146655767Y-98134415D01*
X146629350Y-98182132D01*
X146607148Y-98218893D01*
X146591319Y-98241044D01*
X146585954Y-98245741D01*
X146544257Y-98252102D01*
X146509849Y-98238733D01*
X146499728Y-98224446D01*
X146482214Y-98192692D01*
X146458735Y-98146597D01*
X146430720Y-98089285D01*
X146399599Y-98023880D01*
X146366799Y-97953507D01*
X146333750Y-97881291D01*
X146301881Y-97810355D01*
X146272619Y-97743825D01*
X146247395Y-97684826D01*
X146227636Y-97636481D01*
X146214772Y-97601915D01*
X146210231Y-97584253D01*
X146210277Y-97583613D01*
X146221326Y-97561388D01*
X146243410Y-97538753D01*
X146244710Y-97537768D01*
X146271853Y-97522425D01*
X146296958Y-97522574D01*
X146306368Y-97525466D01*
X146317834Y-97531718D01*
X146330010Y-97544014D01*
X146344357Y-97564908D01*
X146362336Y-97596949D01*
X146385407Y-97642688D01*
X146415030Y-97704677D01*
X146441745Y-97761898D01*
X146472480Y-97828226D01*
X146500021Y-97887874D01*
X146522938Y-97937725D01*
X146539798Y-97974664D01*
X146549173Y-97995573D01*
X146550540Y-97998845D01*
X146556689Y-97993497D01*
X146570822Y-97971109D01*
X146591057Y-97934946D01*
X146615515Y-97888277D01*
X146625248Y-97869022D01*
X146658217Y-97804004D01*
X146683643Y-97756654D01*
X146703612Y-97724219D01*
X146720210Y-97703946D01*
X146735524Y-97693082D01*
X146751640Y-97688875D01*
X146762143Y-97688400D01*
X146780670Y-97690042D01*
X146796904Y-97696831D01*
X146813035Y-97711566D01*
X146831251Y-97737044D01*
X146853739Y-97776061D01*
X146882689Y-97831414D01*
X146898662Y-97862903D01*
X146924570Y-97913087D01*
X146947167Y-97954704D01*
X146964458Y-97984242D01*
X146974450Y-97998189D01*
X146975809Y-97998770D01*
X146982261Y-97987793D01*
X146996708Y-97959290D01*
X147017703Y-97916244D01*
X147043797Y-97861638D01*
X147073546Y-97798454D01*
X147088180Y-97767071D01*
X147126250Y-97686078D01*
X147156905Y-97623756D01*
X147181737Y-97578071D01*
X147202337Y-97546989D01*
X147220298Y-97528478D01*
X147237210Y-97520504D01*
X147254665Y-97521034D01*
G36*
X144528309Y-97519275D02*
X144657288Y-97523636D01*
X144766991Y-97536861D01*
X144859226Y-97559741D01*
X144935802Y-97593070D01*
X144998527Y-97637638D01*
X145049212Y-97694236D01*
X145089663Y-97763658D01*
X145090459Y-97765351D01*
X145114601Y-97827483D01*
X145123203Y-97882509D01*
X145116231Y-97937887D01*
X145093654Y-98001073D01*
X145089372Y-98010689D01*
X145060172Y-98066966D01*
X145027356Y-98110451D01*
X144985002Y-98147417D01*
X144927190Y-98184135D01*
X144923831Y-98186052D01*
X144873504Y-98210227D01*
X144816621Y-98228282D01*
X144749527Y-98240839D01*
X144668565Y-98248522D01*
X144570082Y-98251953D01*
X144535286Y-98252251D01*
X144369594Y-98252845D01*
X144346197Y-98223100D01*
X144339257Y-98213319D01*
X144333842Y-98201897D01*
X144329765Y-98186095D01*
X144326837Y-98163175D01*
X144324867Y-98130396D01*
X144324225Y-98106089D01*
X144480844Y-98106089D01*
X144574726Y-98106089D01*
X144629664Y-98104483D01*
X144686060Y-98100255D01*
X144732345Y-98094292D01*
X144735139Y-98093790D01*
X144817348Y-98071736D01*
X144881114Y-98038600D01*
X144928452Y-97992847D01*
X144961382Y-97932939D01*
X144967108Y-97917061D01*
X144972721Y-97892333D01*
X144970291Y-97867902D01*
X144958467Y-97835400D01*
X144951340Y-97819434D01*
X144928000Y-97777006D01*
X144899880Y-97747240D01*
X144868940Y-97726511D01*
X144806966Y-97699537D01*
X144727651Y-97679998D01*
X144635253Y-97668746D01*
X144568333Y-97666270D01*
X144480844Y-97665822D01*
X144480844Y-98106089D01*
X144324225Y-98106089D01*
X144323668Y-98085021D01*
X144323050Y-98024311D01*
X144322825Y-97945526D01*
X144322800Y-97883920D01*
X144322800Y-97574485D01*
X144350509Y-97546776D01*
X144362806Y-97535544D01*
X144376103Y-97527853D01*
X144394672Y-97523040D01*
X144422786Y-97520446D01*
X144464717Y-97519410D01*
X144524737Y-97519270D01*
X144528309Y-97519275D01*
X144528309Y-97519275D01*
G37*
X144528309Y-97519275D02*
X144657288Y-97523636D01*
X144766991Y-97536861D01*
X144859226Y-97559741D01*
X144935802Y-97593070D01*
X144998527Y-97637638D01*
X145049212Y-97694236D01*
X145089663Y-97763658D01*
X145090459Y-97765351D01*
X145114601Y-97827483D01*
X145123203Y-97882509D01*
X145116231Y-97937887D01*
X145093654Y-98001073D01*
X145089372Y-98010689D01*
X145060172Y-98066966D01*
X145027356Y-98110451D01*
X144985002Y-98147417D01*
X144927190Y-98184135D01*
X144923831Y-98186052D01*
X144873504Y-98210227D01*
X144816621Y-98228282D01*
X144749527Y-98240839D01*
X144668565Y-98248522D01*
X144570082Y-98251953D01*
X144535286Y-98252251D01*
X144369594Y-98252845D01*
X144346197Y-98223100D01*
X144339257Y-98213319D01*
X144333842Y-98201897D01*
X144329765Y-98186095D01*
X144326837Y-98163175D01*
X144324867Y-98130396D01*
X144324225Y-98106089D01*
X144480844Y-98106089D01*
X144574726Y-98106089D01*
X144629664Y-98104483D01*
X144686060Y-98100255D01*
X144732345Y-98094292D01*
X144735139Y-98093790D01*
X144817348Y-98071736D01*
X144881114Y-98038600D01*
X144928452Y-97992847D01*
X144961382Y-97932939D01*
X144967108Y-97917061D01*
X144972721Y-97892333D01*
X144970291Y-97867902D01*
X144958467Y-97835400D01*
X144951340Y-97819434D01*
X144928000Y-97777006D01*
X144899880Y-97747240D01*
X144868940Y-97726511D01*
X144806966Y-97699537D01*
X144727651Y-97679998D01*
X144635253Y-97668746D01*
X144568333Y-97666270D01*
X144480844Y-97665822D01*
X144480844Y-98106089D01*
X144324225Y-98106089D01*
X144323668Y-98085021D01*
X144323050Y-98024311D01*
X144322825Y-97945526D01*
X144322800Y-97883920D01*
X144322800Y-97574485D01*
X144350509Y-97546776D01*
X144362806Y-97535544D01*
X144376103Y-97527853D01*
X144394672Y-97523040D01*
X144422786Y-97520446D01*
X144464717Y-97519410D01*
X144524737Y-97519270D01*
X144528309Y-97519275D01*
G36*
X143740343Y-97519260D02*
X143816701Y-97520174D01*
X143875217Y-97522311D01*
X143918255Y-97526175D01*
X143948183Y-97532267D01*
X143967368Y-97541090D01*
X143978176Y-97553146D01*
X143982973Y-97568939D01*
X143984127Y-97588970D01*
X143984133Y-97591335D01*
X143983131Y-97613992D01*
X143978396Y-97631503D01*
X143967333Y-97644574D01*
X143947348Y-97653913D01*
X143915846Y-97660227D01*
X143870232Y-97664222D01*
X143807913Y-97666606D01*
X143726293Y-97668086D01*
X143701277Y-97668414D01*
X143459200Y-97671467D01*
X143455814Y-97736378D01*
X143452429Y-97801289D01*
X143620576Y-97801289D01*
X143686266Y-97801531D01*
X143733172Y-97802556D01*
X143765083Y-97804811D01*
X143785791Y-97808742D01*
X143799084Y-97814798D01*
X143808755Y-97823424D01*
X143808817Y-97823493D01*
X143826356Y-97857112D01*
X143825722Y-97893448D01*
X143807314Y-97924423D01*
X143803671Y-97927607D01*
X143790741Y-97935812D01*
X143773024Y-97941521D01*
X143746570Y-97945162D01*
X143707432Y-97947167D01*
X143651662Y-97947964D01*
X143615994Y-97948045D01*
X143453555Y-97948045D01*
X143453555Y-98106089D01*
X143700161Y-98106089D01*
X143781580Y-98106231D01*
X143843410Y-98106814D01*
X143888637Y-98108068D01*
X143920248Y-98110227D01*
X143941231Y-98113523D01*
X143954573Y-98118189D01*
X143963261Y-98124457D01*
X143965450Y-98126733D01*
X143981614Y-98158280D01*
X143982797Y-98194168D01*
X143969536Y-98225285D01*
X143959043Y-98235271D01*
X143948129Y-98240769D01*
X143931217Y-98245022D01*
X143905633Y-98248180D01*
X143868701Y-98250392D01*
X143817746Y-98251806D01*
X143750094Y-98252572D01*
X143663069Y-98252838D01*
X143643394Y-98252845D01*
X143554911Y-98252787D01*
X143486227Y-98252467D01*
X143434564Y-98251667D01*
X143397145Y-98250167D01*
X143371190Y-98247749D01*
X143353922Y-98244194D01*
X143342562Y-98239282D01*
X143334332Y-98232795D01*
X143329817Y-98228138D01*
X143323021Y-98219889D01*
X143317712Y-98209669D01*
X143313706Y-98194800D01*
X143310821Y-98172602D01*
X143308874Y-98140393D01*
X143307681Y-98095496D01*
X143307061Y-98035228D01*
X143306829Y-97956911D01*
X143306800Y-97890994D01*
X143306871Y-97798628D01*
X143307208Y-97726117D01*
X143307998Y-97670737D01*
X143309426Y-97629765D01*
X143311679Y-97600478D01*
X143314943Y-97580153D01*
X143319404Y-97566066D01*
X143325248Y-97555495D01*
X143330197Y-97548811D01*
X143353594Y-97519067D01*
X143643774Y-97519067D01*
X143740343Y-97519260D01*
X143740343Y-97519260D01*
G37*
X143740343Y-97519260D02*
X143816701Y-97520174D01*
X143875217Y-97522311D01*
X143918255Y-97526175D01*
X143948183Y-97532267D01*
X143967368Y-97541090D01*
X143978176Y-97553146D01*
X143982973Y-97568939D01*
X143984127Y-97588970D01*
X143984133Y-97591335D01*
X143983131Y-97613992D01*
X143978396Y-97631503D01*
X143967333Y-97644574D01*
X143947348Y-97653913D01*
X143915846Y-97660227D01*
X143870232Y-97664222D01*
X143807913Y-97666606D01*
X143726293Y-97668086D01*
X143701277Y-97668414D01*
X143459200Y-97671467D01*
X143455814Y-97736378D01*
X143452429Y-97801289D01*
X143620576Y-97801289D01*
X143686266Y-97801531D01*
X143733172Y-97802556D01*
X143765083Y-97804811D01*
X143785791Y-97808742D01*
X143799084Y-97814798D01*
X143808755Y-97823424D01*
X143808817Y-97823493D01*
X143826356Y-97857112D01*
X143825722Y-97893448D01*
X143807314Y-97924423D01*
X143803671Y-97927607D01*
X143790741Y-97935812D01*
X143773024Y-97941521D01*
X143746570Y-97945162D01*
X143707432Y-97947167D01*
X143651662Y-97947964D01*
X143615994Y-97948045D01*
X143453555Y-97948045D01*
X143453555Y-98106089D01*
X143700161Y-98106089D01*
X143781580Y-98106231D01*
X143843410Y-98106814D01*
X143888637Y-98108068D01*
X143920248Y-98110227D01*
X143941231Y-98113523D01*
X143954573Y-98118189D01*
X143963261Y-98124457D01*
X143965450Y-98126733D01*
X143981614Y-98158280D01*
X143982797Y-98194168D01*
X143969536Y-98225285D01*
X143959043Y-98235271D01*
X143948129Y-98240769D01*
X143931217Y-98245022D01*
X143905633Y-98248180D01*
X143868701Y-98250392D01*
X143817746Y-98251806D01*
X143750094Y-98252572D01*
X143663069Y-98252838D01*
X143643394Y-98252845D01*
X143554911Y-98252787D01*
X143486227Y-98252467D01*
X143434564Y-98251667D01*
X143397145Y-98250167D01*
X143371190Y-98247749D01*
X143353922Y-98244194D01*
X143342562Y-98239282D01*
X143334332Y-98232795D01*
X143329817Y-98228138D01*
X143323021Y-98219889D01*
X143317712Y-98209669D01*
X143313706Y-98194800D01*
X143310821Y-98172602D01*
X143308874Y-98140393D01*
X143307681Y-98095496D01*
X143307061Y-98035228D01*
X143306829Y-97956911D01*
X143306800Y-97890994D01*
X143306871Y-97798628D01*
X143307208Y-97726117D01*
X143307998Y-97670737D01*
X143309426Y-97629765D01*
X143311679Y-97600478D01*
X143314943Y-97580153D01*
X143319404Y-97566066D01*
X143325248Y-97555495D01*
X143330197Y-97548811D01*
X143353594Y-97519067D01*
X143643774Y-97519067D01*
X143740343Y-97519260D01*
G36*
X142209886Y-97523448D02*
X142233452Y-97537273D01*
X142264265Y-97559881D01*
X142303922Y-97592338D01*
X142354020Y-97635708D01*
X142416157Y-97691058D01*
X142491928Y-97759451D01*
X142578666Y-97838084D01*
X142759289Y-98001878D01*
X142764933Y-97782029D01*
X142766971Y-97706351D01*
X142768937Y-97649994D01*
X142771266Y-97609706D01*
X142774394Y-97582235D01*
X142778755Y-97564329D01*
X142784784Y-97552737D01*
X142792916Y-97544208D01*
X142797228Y-97540623D01*
X142831759Y-97521670D01*
X142864617Y-97524441D01*
X142890682Y-97540633D01*
X142917333Y-97562199D01*
X142920648Y-97877151D01*
X142921565Y-97969779D01*
X142922032Y-98042544D01*
X142921887Y-98098161D01*
X142920968Y-98139342D01*
X142919113Y-98168803D01*
X142916161Y-98189255D01*
X142911950Y-98203413D01*
X142906318Y-98213991D01*
X142900073Y-98222474D01*
X142886561Y-98238207D01*
X142873117Y-98248636D01*
X142857876Y-98252639D01*
X142838974Y-98249094D01*
X142814545Y-98236879D01*
X142782727Y-98214871D01*
X142741652Y-98181949D01*
X142689458Y-98136991D01*
X142624278Y-98078875D01*
X142550444Y-98012099D01*
X142285155Y-97771458D01*
X142279511Y-97990589D01*
X142277469Y-98066128D01*
X142275498Y-98122354D01*
X142273161Y-98162524D01*
X142270019Y-98189896D01*
X142265636Y-98207728D01*
X142259576Y-98219279D01*
X142251400Y-98227807D01*
X142247216Y-98231282D01*
X142210235Y-98250372D01*
X142175292Y-98247493D01*
X142144864Y-98223100D01*
X142137903Y-98213286D01*
X142132477Y-98201826D01*
X142128397Y-98185968D01*
X142125471Y-98162963D01*
X142123508Y-98130062D01*
X142122317Y-98084516D01*
X142121708Y-98023573D01*
X142121489Y-97944486D01*
X142121466Y-97885956D01*
X142121540Y-97794407D01*
X142121887Y-97722687D01*
X142122699Y-97668045D01*
X142124167Y-97627732D01*
X142126481Y-97598998D01*
X142129833Y-97579093D01*
X142134412Y-97565268D01*
X142140411Y-97554772D01*
X142144864Y-97548811D01*
X142156150Y-97534691D01*
X142166699Y-97524029D01*
X142178107Y-97517892D01*
X142191970Y-97517343D01*
X142209886Y-97523448D01*
X142209886Y-97523448D01*
G37*
X142209886Y-97523448D02*
X142233452Y-97537273D01*
X142264265Y-97559881D01*
X142303922Y-97592338D01*
X142354020Y-97635708D01*
X142416157Y-97691058D01*
X142491928Y-97759451D01*
X142578666Y-97838084D01*
X142759289Y-98001878D01*
X142764933Y-97782029D01*
X142766971Y-97706351D01*
X142768937Y-97649994D01*
X142771266Y-97609706D01*
X142774394Y-97582235D01*
X142778755Y-97564329D01*
X142784784Y-97552737D01*
X142792916Y-97544208D01*
X142797228Y-97540623D01*
X142831759Y-97521670D01*
X142864617Y-97524441D01*
X142890682Y-97540633D01*
X142917333Y-97562199D01*
X142920648Y-97877151D01*
X142921565Y-97969779D01*
X142922032Y-98042544D01*
X142921887Y-98098161D01*
X142920968Y-98139342D01*
X142919113Y-98168803D01*
X142916161Y-98189255D01*
X142911950Y-98203413D01*
X142906318Y-98213991D01*
X142900073Y-98222474D01*
X142886561Y-98238207D01*
X142873117Y-98248636D01*
X142857876Y-98252639D01*
X142838974Y-98249094D01*
X142814545Y-98236879D01*
X142782727Y-98214871D01*
X142741652Y-98181949D01*
X142689458Y-98136991D01*
X142624278Y-98078875D01*
X142550444Y-98012099D01*
X142285155Y-97771458D01*
X142279511Y-97990589D01*
X142277469Y-98066128D01*
X142275498Y-98122354D01*
X142273161Y-98162524D01*
X142270019Y-98189896D01*
X142265636Y-98207728D01*
X142259576Y-98219279D01*
X142251400Y-98227807D01*
X142247216Y-98231282D01*
X142210235Y-98250372D01*
X142175292Y-98247493D01*
X142144864Y-98223100D01*
X142137903Y-98213286D01*
X142132477Y-98201826D01*
X142128397Y-98185968D01*
X142125471Y-98162963D01*
X142123508Y-98130062D01*
X142122317Y-98084516D01*
X142121708Y-98023573D01*
X142121489Y-97944486D01*
X142121466Y-97885956D01*
X142121540Y-97794407D01*
X142121887Y-97722687D01*
X142122699Y-97668045D01*
X142124167Y-97627732D01*
X142126481Y-97598998D01*
X142129833Y-97579093D01*
X142134412Y-97565268D01*
X142140411Y-97554772D01*
X142144864Y-97548811D01*
X142156150Y-97534691D01*
X142166699Y-97524029D01*
X142178107Y-97517892D01*
X142191970Y-97517343D01*
X142209886Y-97523448D01*
G36*
X141559919Y-97524599D02*
X141628435Y-97536095D01*
X141681057Y-97553967D01*
X141715292Y-97577499D01*
X141724621Y-97590924D01*
X141734107Y-97622148D01*
X141727723Y-97650395D01*
X141707570Y-97677182D01*
X141676255Y-97689713D01*
X141630817Y-97688696D01*
X141595674Y-97681906D01*
X141517581Y-97668971D01*
X141437774Y-97667742D01*
X141348445Y-97678241D01*
X141323771Y-97682690D01*
X141240709Y-97706108D01*
X141175727Y-97740945D01*
X141129539Y-97786604D01*
X141102855Y-97842494D01*
X141097337Y-97871388D01*
X141100949Y-97930012D01*
X141124271Y-97981879D01*
X141165176Y-98025978D01*
X141221541Y-98061299D01*
X141291240Y-98086829D01*
X141372148Y-98101559D01*
X141462140Y-98104478D01*
X141559090Y-98094575D01*
X141564564Y-98093641D01*
X141603125Y-98086459D01*
X141624506Y-98079521D01*
X141633773Y-98069227D01*
X141635994Y-98051976D01*
X141636044Y-98042841D01*
X141636044Y-98004489D01*
X141567569Y-98004489D01*
X141507100Y-98000347D01*
X141465835Y-97987147D01*
X141441825Y-97963730D01*
X141433123Y-97928936D01*
X141433017Y-97924394D01*
X141438108Y-97894654D01*
X141455567Y-97873419D01*
X141488061Y-97859366D01*
X141538257Y-97851173D01*
X141586877Y-97848161D01*
X141657544Y-97846433D01*
X141708802Y-97849070D01*
X141743761Y-97858800D01*
X141765530Y-97878353D01*
X141777220Y-97910456D01*
X141781940Y-97957838D01*
X141782800Y-98020071D01*
X141781391Y-98089535D01*
X141777152Y-98136786D01*
X141770064Y-98162012D01*
X141768689Y-98163988D01*
X141729772Y-98195508D01*
X141672714Y-98220470D01*
X141601131Y-98238340D01*
X141518642Y-98248586D01*
X141428861Y-98250673D01*
X141335408Y-98244068D01*
X141280444Y-98235956D01*
X141194234Y-98211554D01*
X141114108Y-98171662D01*
X141047023Y-98119887D01*
X141036827Y-98109539D01*
X141003698Y-98066035D01*
X140973806Y-98012118D01*
X140950643Y-97955592D01*
X140937702Y-97904259D01*
X140936142Y-97884544D01*
X140942782Y-97843419D01*
X140960432Y-97792252D01*
X140985703Y-97738394D01*
X141015211Y-97689195D01*
X141041281Y-97656334D01*
X141102235Y-97607452D01*
X141181031Y-97568545D01*
X141274843Y-97540494D01*
X141380850Y-97524179D01*
X141478000Y-97520192D01*
X141559919Y-97524599D01*
X141559919Y-97524599D01*
G37*
X141559919Y-97524599D02*
X141628435Y-97536095D01*
X141681057Y-97553967D01*
X141715292Y-97577499D01*
X141724621Y-97590924D01*
X141734107Y-97622148D01*
X141727723Y-97650395D01*
X141707570Y-97677182D01*
X141676255Y-97689713D01*
X141630817Y-97688696D01*
X141595674Y-97681906D01*
X141517581Y-97668971D01*
X141437774Y-97667742D01*
X141348445Y-97678241D01*
X141323771Y-97682690D01*
X141240709Y-97706108D01*
X141175727Y-97740945D01*
X141129539Y-97786604D01*
X141102855Y-97842494D01*
X141097337Y-97871388D01*
X141100949Y-97930012D01*
X141124271Y-97981879D01*
X141165176Y-98025978D01*
X141221541Y-98061299D01*
X141291240Y-98086829D01*
X141372148Y-98101559D01*
X141462140Y-98104478D01*
X141559090Y-98094575D01*
X141564564Y-98093641D01*
X141603125Y-98086459D01*
X141624506Y-98079521D01*
X141633773Y-98069227D01*
X141635994Y-98051976D01*
X141636044Y-98042841D01*
X141636044Y-98004489D01*
X141567569Y-98004489D01*
X141507100Y-98000347D01*
X141465835Y-97987147D01*
X141441825Y-97963730D01*
X141433123Y-97928936D01*
X141433017Y-97924394D01*
X141438108Y-97894654D01*
X141455567Y-97873419D01*
X141488061Y-97859366D01*
X141538257Y-97851173D01*
X141586877Y-97848161D01*
X141657544Y-97846433D01*
X141708802Y-97849070D01*
X141743761Y-97858800D01*
X141765530Y-97878353D01*
X141777220Y-97910456D01*
X141781940Y-97957838D01*
X141782800Y-98020071D01*
X141781391Y-98089535D01*
X141777152Y-98136786D01*
X141770064Y-98162012D01*
X141768689Y-98163988D01*
X141729772Y-98195508D01*
X141672714Y-98220470D01*
X141601131Y-98238340D01*
X141518642Y-98248586D01*
X141428861Y-98250673D01*
X141335408Y-98244068D01*
X141280444Y-98235956D01*
X141194234Y-98211554D01*
X141114108Y-98171662D01*
X141047023Y-98119887D01*
X141036827Y-98109539D01*
X141003698Y-98066035D01*
X140973806Y-98012118D01*
X140950643Y-97955592D01*
X140937702Y-97904259D01*
X140936142Y-97884544D01*
X140942782Y-97843419D01*
X140960432Y-97792252D01*
X140985703Y-97738394D01*
X141015211Y-97689195D01*
X141041281Y-97656334D01*
X141102235Y-97607452D01*
X141181031Y-97568545D01*
X141274843Y-97540494D01*
X141380850Y-97524179D01*
X141478000Y-97520192D01*
X141559919Y-97524599D01*
G36*
X140586178Y-97541645D02*
X140592758Y-97549218D01*
X140597921Y-97558987D01*
X140601836Y-97573571D01*
X140604676Y-97595585D01*
X140606613Y-97627648D01*
X140607817Y-97672375D01*
X140608461Y-97732385D01*
X140608716Y-97810294D01*
X140608755Y-97885956D01*
X140608686Y-97979802D01*
X140608362Y-98053689D01*
X140607614Y-98110232D01*
X140606268Y-98152049D01*
X140604154Y-98181757D01*
X140601100Y-98201973D01*
X140596934Y-98215314D01*
X140591484Y-98224398D01*
X140586178Y-98230267D01*
X140553174Y-98249947D01*
X140518009Y-98248181D01*
X140486545Y-98226717D01*
X140479316Y-98218337D01*
X140473666Y-98208614D01*
X140469401Y-98194861D01*
X140466327Y-98174389D01*
X140464248Y-98144512D01*
X140462970Y-98102541D01*
X140462299Y-98045789D01*
X140462041Y-97971567D01*
X140462000Y-97887537D01*
X140462000Y-97574485D01*
X140489709Y-97546776D01*
X140523863Y-97523463D01*
X140556994Y-97522623D01*
X140586178Y-97541645D01*
X140586178Y-97541645D01*
G37*
X140586178Y-97541645D02*
X140592758Y-97549218D01*
X140597921Y-97558987D01*
X140601836Y-97573571D01*
X140604676Y-97595585D01*
X140606613Y-97627648D01*
X140607817Y-97672375D01*
X140608461Y-97732385D01*
X140608716Y-97810294D01*
X140608755Y-97885956D01*
X140608686Y-97979802D01*
X140608362Y-98053689D01*
X140607614Y-98110232D01*
X140606268Y-98152049D01*
X140604154Y-98181757D01*
X140601100Y-98201973D01*
X140596934Y-98215314D01*
X140591484Y-98224398D01*
X140586178Y-98230267D01*
X140553174Y-98249947D01*
X140518009Y-98248181D01*
X140486545Y-98226717D01*
X140479316Y-98218337D01*
X140473666Y-98208614D01*
X140469401Y-98194861D01*
X140466327Y-98174389D01*
X140464248Y-98144512D01*
X140462970Y-98102541D01*
X140462299Y-98045789D01*
X140462041Y-97971567D01*
X140462000Y-97887537D01*
X140462000Y-97574485D01*
X140489709Y-97546776D01*
X140523863Y-97523463D01*
X140556994Y-97522623D01*
X140586178Y-97541645D01*
G36*
X139818297Y-97520351D02*
X139893112Y-97525581D01*
X139962694Y-97533750D01*
X140022998Y-97544550D01*
X140069980Y-97557673D01*
X140099594Y-97572813D01*
X140104140Y-97577269D01*
X140119946Y-97611850D01*
X140115153Y-97647351D01*
X140090636Y-97677725D01*
X140089466Y-97678596D01*
X140075046Y-97687954D01*
X140059992Y-97692876D01*
X140038995Y-97693473D01*
X140006743Y-97689861D01*
X139957927Y-97682154D01*
X139954000Y-97681505D01*
X139881261Y-97672569D01*
X139802783Y-97668161D01*
X139724073Y-97668119D01*
X139650639Y-97672279D01*
X139587989Y-97680479D01*
X139541630Y-97692557D01*
X139538584Y-97693771D01*
X139504952Y-97712615D01*
X139493136Y-97731685D01*
X139502386Y-97750439D01*
X139531953Y-97768337D01*
X139581089Y-97784837D01*
X139649043Y-97799396D01*
X139694355Y-97806406D01*
X139788544Y-97819889D01*
X139863456Y-97832214D01*
X139922283Y-97844449D01*
X139968215Y-97857661D01*
X140004445Y-97872917D01*
X140034162Y-97891285D01*
X140060558Y-97913831D01*
X140081770Y-97935971D01*
X140106935Y-97966819D01*
X140119319Y-97993345D01*
X140123192Y-98026026D01*
X140123333Y-98037995D01*
X140120424Y-98077712D01*
X140108798Y-98107259D01*
X140088677Y-98133486D01*
X140047784Y-98173576D01*
X140002183Y-98204149D01*
X139948487Y-98226203D01*
X139883308Y-98240735D01*
X139803256Y-98248741D01*
X139704943Y-98251218D01*
X139688711Y-98251177D01*
X139623151Y-98249818D01*
X139558134Y-98246730D01*
X139500748Y-98242356D01*
X139458078Y-98237140D01*
X139454628Y-98236541D01*
X139412204Y-98226491D01*
X139376220Y-98213796D01*
X139355850Y-98202190D01*
X139336893Y-98171572D01*
X139335573Y-98135918D01*
X139351915Y-98104144D01*
X139355571Y-98100551D01*
X139370685Y-98089876D01*
X139389585Y-98085276D01*
X139418838Y-98086059D01*
X139454349Y-98090127D01*
X139494030Y-98093762D01*
X139549655Y-98096828D01*
X139614594Y-98099053D01*
X139682215Y-98100164D01*
X139700000Y-98100237D01*
X139767872Y-98099964D01*
X139817546Y-98098646D01*
X139853390Y-98095827D01*
X139879776Y-98091050D01*
X139901074Y-98083857D01*
X139913874Y-98077867D01*
X139942000Y-98061233D01*
X139959932Y-98046168D01*
X139962553Y-98041897D01*
X139957024Y-98024263D01*
X139930740Y-98007192D01*
X139885522Y-97991458D01*
X139823192Y-97977838D01*
X139804829Y-97974804D01*
X139708910Y-97959738D01*
X139632359Y-97947146D01*
X139572220Y-97936111D01*
X139525540Y-97925720D01*
X139489363Y-97915056D01*
X139460735Y-97903205D01*
X139436702Y-97889251D01*
X139414308Y-97872281D01*
X139390598Y-97851378D01*
X139382620Y-97844049D01*
X139354647Y-97816699D01*
X139339840Y-97795029D01*
X139334048Y-97770232D01*
X139333111Y-97738983D01*
X139343425Y-97677705D01*
X139374248Y-97625640D01*
X139425405Y-97582958D01*
X139496717Y-97549825D01*
X139547600Y-97534964D01*
X139602900Y-97525366D01*
X139669147Y-97519936D01*
X139742294Y-97518367D01*
X139818297Y-97520351D01*
X139818297Y-97520351D01*
G37*
X139818297Y-97520351D02*
X139893112Y-97525581D01*
X139962694Y-97533750D01*
X140022998Y-97544550D01*
X140069980Y-97557673D01*
X140099594Y-97572813D01*
X140104140Y-97577269D01*
X140119946Y-97611850D01*
X140115153Y-97647351D01*
X140090636Y-97677725D01*
X140089466Y-97678596D01*
X140075046Y-97687954D01*
X140059992Y-97692876D01*
X140038995Y-97693473D01*
X140006743Y-97689861D01*
X139957927Y-97682154D01*
X139954000Y-97681505D01*
X139881261Y-97672569D01*
X139802783Y-97668161D01*
X139724073Y-97668119D01*
X139650639Y-97672279D01*
X139587989Y-97680479D01*
X139541630Y-97692557D01*
X139538584Y-97693771D01*
X139504952Y-97712615D01*
X139493136Y-97731685D01*
X139502386Y-97750439D01*
X139531953Y-97768337D01*
X139581089Y-97784837D01*
X139649043Y-97799396D01*
X139694355Y-97806406D01*
X139788544Y-97819889D01*
X139863456Y-97832214D01*
X139922283Y-97844449D01*
X139968215Y-97857661D01*
X140004445Y-97872917D01*
X140034162Y-97891285D01*
X140060558Y-97913831D01*
X140081770Y-97935971D01*
X140106935Y-97966819D01*
X140119319Y-97993345D01*
X140123192Y-98026026D01*
X140123333Y-98037995D01*
X140120424Y-98077712D01*
X140108798Y-98107259D01*
X140088677Y-98133486D01*
X140047784Y-98173576D01*
X140002183Y-98204149D01*
X139948487Y-98226203D01*
X139883308Y-98240735D01*
X139803256Y-98248741D01*
X139704943Y-98251218D01*
X139688711Y-98251177D01*
X139623151Y-98249818D01*
X139558134Y-98246730D01*
X139500748Y-98242356D01*
X139458078Y-98237140D01*
X139454628Y-98236541D01*
X139412204Y-98226491D01*
X139376220Y-98213796D01*
X139355850Y-98202190D01*
X139336893Y-98171572D01*
X139335573Y-98135918D01*
X139351915Y-98104144D01*
X139355571Y-98100551D01*
X139370685Y-98089876D01*
X139389585Y-98085276D01*
X139418838Y-98086059D01*
X139454349Y-98090127D01*
X139494030Y-98093762D01*
X139549655Y-98096828D01*
X139614594Y-98099053D01*
X139682215Y-98100164D01*
X139700000Y-98100237D01*
X139767872Y-98099964D01*
X139817546Y-98098646D01*
X139853390Y-98095827D01*
X139879776Y-98091050D01*
X139901074Y-98083857D01*
X139913874Y-98077867D01*
X139942000Y-98061233D01*
X139959932Y-98046168D01*
X139962553Y-98041897D01*
X139957024Y-98024263D01*
X139930740Y-98007192D01*
X139885522Y-97991458D01*
X139823192Y-97977838D01*
X139804829Y-97974804D01*
X139708910Y-97959738D01*
X139632359Y-97947146D01*
X139572220Y-97936111D01*
X139525540Y-97925720D01*
X139489363Y-97915056D01*
X139460735Y-97903205D01*
X139436702Y-97889251D01*
X139414308Y-97872281D01*
X139390598Y-97851378D01*
X139382620Y-97844049D01*
X139354647Y-97816699D01*
X139339840Y-97795029D01*
X139334048Y-97770232D01*
X139333111Y-97738983D01*
X139343425Y-97677705D01*
X139374248Y-97625640D01*
X139425405Y-97582958D01*
X139496717Y-97549825D01*
X139547600Y-97534964D01*
X139602900Y-97525366D01*
X139669147Y-97519936D01*
X139742294Y-97518367D01*
X139818297Y-97520351D01*
G36*
X138797206Y-97519146D02*
X138866614Y-97519518D01*
X138919003Y-97520385D01*
X138957153Y-97521946D01*
X138983841Y-97524403D01*
X139001847Y-97527957D01*
X139013951Y-97532810D01*
X139022931Y-97539161D01*
X139026182Y-97542084D01*
X139045957Y-97573142D01*
X139049518Y-97608828D01*
X139036509Y-97640510D01*
X139030494Y-97646913D01*
X139020765Y-97653121D01*
X139005099Y-97657910D01*
X138980592Y-97661514D01*
X138944339Y-97664164D01*
X138893435Y-97666095D01*
X138824974Y-97667539D01*
X138762383Y-97668418D01*
X138514666Y-97671467D01*
X138511281Y-97736378D01*
X138507895Y-97801289D01*
X138676042Y-97801289D01*
X138749041Y-97801919D01*
X138802483Y-97804553D01*
X138839372Y-97810309D01*
X138862712Y-97820304D01*
X138875506Y-97835656D01*
X138880758Y-97857482D01*
X138881555Y-97877738D01*
X138879077Y-97902592D01*
X138869723Y-97920906D01*
X138850617Y-97933637D01*
X138818882Y-97941741D01*
X138771641Y-97946176D01*
X138706017Y-97947899D01*
X138670199Y-97948045D01*
X138509022Y-97948045D01*
X138509022Y-98106089D01*
X138757378Y-98106089D01*
X138838787Y-98106202D01*
X138900658Y-98106712D01*
X138946032Y-98107870D01*
X138977946Y-98109930D01*
X138999441Y-98113146D01*
X139013557Y-98117772D01*
X139023332Y-98124059D01*
X139028311Y-98128667D01*
X139045390Y-98155560D01*
X139050889Y-98179467D01*
X139043037Y-98208667D01*
X139028311Y-98230267D01*
X139020454Y-98237066D01*
X139010312Y-98242346D01*
X138995156Y-98246298D01*
X138972259Y-98249113D01*
X138938891Y-98250982D01*
X138892325Y-98252098D01*
X138829833Y-98252651D01*
X138748686Y-98252833D01*
X138706578Y-98252845D01*
X138616402Y-98252765D01*
X138546076Y-98252398D01*
X138492871Y-98251552D01*
X138454060Y-98250036D01*
X138426913Y-98247659D01*
X138408702Y-98244229D01*
X138396700Y-98239554D01*
X138388178Y-98233444D01*
X138384844Y-98230267D01*
X138378245Y-98222670D01*
X138373073Y-98212870D01*
X138369154Y-98198239D01*
X138366316Y-98176152D01*
X138364385Y-98143982D01*
X138363188Y-98099103D01*
X138362552Y-98038889D01*
X138362303Y-97960713D01*
X138362266Y-97887923D01*
X138362300Y-97794707D01*
X138362535Y-97721431D01*
X138363170Y-97665458D01*
X138364406Y-97624151D01*
X138366444Y-97594872D01*
X138369483Y-97574984D01*
X138373723Y-97561850D01*
X138379365Y-97552832D01*
X138386609Y-97545293D01*
X138388394Y-97543612D01*
X138397055Y-97536172D01*
X138407118Y-97530409D01*
X138421375Y-97526112D01*
X138442617Y-97523064D01*
X138473636Y-97521051D01*
X138517223Y-97519860D01*
X138576169Y-97519275D01*
X138653266Y-97519083D01*
X138707999Y-97519067D01*
X138797206Y-97519146D01*
X138797206Y-97519146D01*
G37*
X138797206Y-97519146D02*
X138866614Y-97519518D01*
X138919003Y-97520385D01*
X138957153Y-97521946D01*
X138983841Y-97524403D01*
X139001847Y-97527957D01*
X139013951Y-97532810D01*
X139022931Y-97539161D01*
X139026182Y-97542084D01*
X139045957Y-97573142D01*
X139049518Y-97608828D01*
X139036509Y-97640510D01*
X139030494Y-97646913D01*
X139020765Y-97653121D01*
X139005099Y-97657910D01*
X138980592Y-97661514D01*
X138944339Y-97664164D01*
X138893435Y-97666095D01*
X138824974Y-97667539D01*
X138762383Y-97668418D01*
X138514666Y-97671467D01*
X138511281Y-97736378D01*
X138507895Y-97801289D01*
X138676042Y-97801289D01*
X138749041Y-97801919D01*
X138802483Y-97804553D01*
X138839372Y-97810309D01*
X138862712Y-97820304D01*
X138875506Y-97835656D01*
X138880758Y-97857482D01*
X138881555Y-97877738D01*
X138879077Y-97902592D01*
X138869723Y-97920906D01*
X138850617Y-97933637D01*
X138818882Y-97941741D01*
X138771641Y-97946176D01*
X138706017Y-97947899D01*
X138670199Y-97948045D01*
X138509022Y-97948045D01*
X138509022Y-98106089D01*
X138757378Y-98106089D01*
X138838787Y-98106202D01*
X138900658Y-98106712D01*
X138946032Y-98107870D01*
X138977946Y-98109930D01*
X138999441Y-98113146D01*
X139013557Y-98117772D01*
X139023332Y-98124059D01*
X139028311Y-98128667D01*
X139045390Y-98155560D01*
X139050889Y-98179467D01*
X139043037Y-98208667D01*
X139028311Y-98230267D01*
X139020454Y-98237066D01*
X139010312Y-98242346D01*
X138995156Y-98246298D01*
X138972259Y-98249113D01*
X138938891Y-98250982D01*
X138892325Y-98252098D01*
X138829833Y-98252651D01*
X138748686Y-98252833D01*
X138706578Y-98252845D01*
X138616402Y-98252765D01*
X138546076Y-98252398D01*
X138492871Y-98251552D01*
X138454060Y-98250036D01*
X138426913Y-98247659D01*
X138408702Y-98244229D01*
X138396700Y-98239554D01*
X138388178Y-98233444D01*
X138384844Y-98230267D01*
X138378245Y-98222670D01*
X138373073Y-98212870D01*
X138369154Y-98198239D01*
X138366316Y-98176152D01*
X138364385Y-98143982D01*
X138363188Y-98099103D01*
X138362552Y-98038889D01*
X138362303Y-97960713D01*
X138362266Y-97887923D01*
X138362300Y-97794707D01*
X138362535Y-97721431D01*
X138363170Y-97665458D01*
X138364406Y-97624151D01*
X138366444Y-97594872D01*
X138369483Y-97574984D01*
X138373723Y-97561850D01*
X138379365Y-97552832D01*
X138386609Y-97545293D01*
X138388394Y-97543612D01*
X138397055Y-97536172D01*
X138407118Y-97530409D01*
X138421375Y-97526112D01*
X138442617Y-97523064D01*
X138473636Y-97521051D01*
X138517223Y-97519860D01*
X138576169Y-97519275D01*
X138653266Y-97519083D01*
X138707999Y-97519067D01*
X138797206Y-97519146D01*
G36*
X137388629Y-97519066D02*
X137428111Y-97519467D01*
X137543800Y-97522259D01*
X137640689Y-97530550D01*
X137722081Y-97545232D01*
X137791277Y-97567193D01*
X137851580Y-97597322D01*
X137906292Y-97636510D01*
X137925833Y-97653532D01*
X137958250Y-97693363D01*
X137987480Y-97747413D01*
X138010009Y-97807323D01*
X138022321Y-97864739D01*
X138023600Y-97885956D01*
X138015583Y-97944769D01*
X137994101Y-98009013D01*
X137963001Y-98069821D01*
X137926134Y-98118330D01*
X137920146Y-98124182D01*
X137869421Y-98165321D01*
X137813875Y-98197435D01*
X137750304Y-98221365D01*
X137675506Y-98237953D01*
X137586278Y-98248041D01*
X137479418Y-98252469D01*
X137430472Y-98252845D01*
X137368238Y-98252545D01*
X137324472Y-98251292D01*
X137295069Y-98248554D01*
X137275921Y-98243801D01*
X137262923Y-98236501D01*
X137255955Y-98230267D01*
X137249374Y-98222694D01*
X137244212Y-98212924D01*
X137240297Y-98198340D01*
X137237457Y-98176326D01*
X137235520Y-98144264D01*
X137234316Y-98099536D01*
X137233672Y-98039526D01*
X137233417Y-97961617D01*
X137233378Y-97885956D01*
X137233130Y-97785041D01*
X137233183Y-97704427D01*
X137234143Y-97665822D01*
X137380133Y-97665822D01*
X137380133Y-98106089D01*
X137473266Y-98106004D01*
X137529307Y-98104396D01*
X137588001Y-98100256D01*
X137636972Y-98094464D01*
X137638462Y-98094226D01*
X137717608Y-98075090D01*
X137778998Y-98045287D01*
X137825695Y-98002878D01*
X137855365Y-97956961D01*
X137873647Y-97906026D01*
X137872229Y-97858200D01*
X137851012Y-97806933D01*
X137809511Y-97753899D01*
X137752002Y-97714600D01*
X137677250Y-97688331D01*
X137627292Y-97679035D01*
X137570584Y-97672507D01*
X137510481Y-97667782D01*
X137459361Y-97665817D01*
X137456333Y-97665808D01*
X137380133Y-97665822D01*
X137234143Y-97665822D01*
X137234740Y-97641851D01*
X137239002Y-97595055D01*
X137247170Y-97561778D01*
X137260444Y-97539759D01*
X137280026Y-97526739D01*
X137307117Y-97520457D01*
X137342918Y-97518653D01*
X137388629Y-97519066D01*
X137388629Y-97519066D01*
G37*
X137388629Y-97519066D02*
X137428111Y-97519467D01*
X137543800Y-97522259D01*
X137640689Y-97530550D01*
X137722081Y-97545232D01*
X137791277Y-97567193D01*
X137851580Y-97597322D01*
X137906292Y-97636510D01*
X137925833Y-97653532D01*
X137958250Y-97693363D01*
X137987480Y-97747413D01*
X138010009Y-97807323D01*
X138022321Y-97864739D01*
X138023600Y-97885956D01*
X138015583Y-97944769D01*
X137994101Y-98009013D01*
X137963001Y-98069821D01*
X137926134Y-98118330D01*
X137920146Y-98124182D01*
X137869421Y-98165321D01*
X137813875Y-98197435D01*
X137750304Y-98221365D01*
X137675506Y-98237953D01*
X137586278Y-98248041D01*
X137479418Y-98252469D01*
X137430472Y-98252845D01*
X137368238Y-98252545D01*
X137324472Y-98251292D01*
X137295069Y-98248554D01*
X137275921Y-98243801D01*
X137262923Y-98236501D01*
X137255955Y-98230267D01*
X137249374Y-98222694D01*
X137244212Y-98212924D01*
X137240297Y-98198340D01*
X137237457Y-98176326D01*
X137235520Y-98144264D01*
X137234316Y-98099536D01*
X137233672Y-98039526D01*
X137233417Y-97961617D01*
X137233378Y-97885956D01*
X137233130Y-97785041D01*
X137233183Y-97704427D01*
X137234143Y-97665822D01*
X137380133Y-97665822D01*
X137380133Y-98106089D01*
X137473266Y-98106004D01*
X137529307Y-98104396D01*
X137588001Y-98100256D01*
X137636972Y-98094464D01*
X137638462Y-98094226D01*
X137717608Y-98075090D01*
X137778998Y-98045287D01*
X137825695Y-98002878D01*
X137855365Y-97956961D01*
X137873647Y-97906026D01*
X137872229Y-97858200D01*
X137851012Y-97806933D01*
X137809511Y-97753899D01*
X137752002Y-97714600D01*
X137677250Y-97688331D01*
X137627292Y-97679035D01*
X137570584Y-97672507D01*
X137510481Y-97667782D01*
X137459361Y-97665817D01*
X137456333Y-97665808D01*
X137380133Y-97665822D01*
X137234143Y-97665822D01*
X137234740Y-97641851D01*
X137239002Y-97595055D01*
X137247170Y-97561778D01*
X137260444Y-97539759D01*
X137280026Y-97526739D01*
X137307117Y-97520457D01*
X137342918Y-97518653D01*
X137388629Y-97519066D01*
G04 #@! TO.C,C1*
D14*
X153503333Y-89257142D02*
X153455714Y-89304761D01*
X153312857Y-89352380D01*
X153217619Y-89352380D01*
X153074761Y-89304761D01*
X152979523Y-89209523D01*
X152931904Y-89114285D01*
X152884285Y-88923809D01*
X152884285Y-88780952D01*
X152931904Y-88590476D01*
X152979523Y-88495238D01*
X153074761Y-88400000D01*
X153217619Y-88352380D01*
X153312857Y-88352380D01*
X153455714Y-88400000D01*
X153503333Y-88447619D01*
X154455714Y-89352380D02*
X153884285Y-89352380D01*
X154170000Y-89352380D02*
X154170000Y-88352380D01*
X154074761Y-88495238D01*
X153979523Y-88590476D01*
X153884285Y-88638095D01*
G04 #@! TO.C,D1*
X156662380Y-85828095D02*
X155662380Y-85828095D01*
X155662380Y-85590000D01*
X155710000Y-85447142D01*
X155805238Y-85351904D01*
X155900476Y-85304285D01*
X156090952Y-85256666D01*
X156233809Y-85256666D01*
X156424285Y-85304285D01*
X156519523Y-85351904D01*
X156614761Y-85447142D01*
X156662380Y-85590000D01*
X156662380Y-85828095D01*
X156662380Y-84304285D02*
X156662380Y-84875714D01*
X156662380Y-84590000D02*
X155662380Y-84590000D01*
X155805238Y-84685238D01*
X155900476Y-84780476D01*
X155948095Y-84875714D01*
G04 #@! TO.C,J1*
X135342380Y-85423333D02*
X136056666Y-85423333D01*
X136199523Y-85470952D01*
X136294761Y-85566190D01*
X136342380Y-85709047D01*
X136342380Y-85804285D01*
X136342380Y-84423333D02*
X136342380Y-84994761D01*
X136342380Y-84709047D02*
X135342380Y-84709047D01*
X135485238Y-84804285D01*
X135580476Y-84899523D01*
X135628095Y-84994761D01*
G04 #@! TO.C,R1*
X137612380Y-80176666D02*
X137136190Y-80510000D01*
X137612380Y-80748095D02*
X136612380Y-80748095D01*
X136612380Y-80367142D01*
X136660000Y-80271904D01*
X136707619Y-80224285D01*
X136802857Y-80176666D01*
X136945714Y-80176666D01*
X137040952Y-80224285D01*
X137088571Y-80271904D01*
X137136190Y-80367142D01*
X137136190Y-80748095D01*
X137612380Y-79224285D02*
X137612380Y-79795714D01*
X137612380Y-79510000D02*
X136612380Y-79510000D01*
X136755238Y-79605238D01*
X136850476Y-79700476D01*
X136898095Y-79795714D01*
G04 #@! TO.C,R2*
X145883333Y-75382380D02*
X145550000Y-74906190D01*
X145311904Y-75382380D02*
X145311904Y-74382380D01*
X145692857Y-74382380D01*
X145788095Y-74430000D01*
X145835714Y-74477619D01*
X145883333Y-74572857D01*
X145883333Y-74715714D01*
X145835714Y-74810952D01*
X145788095Y-74858571D01*
X145692857Y-74906190D01*
X145311904Y-74906190D01*
X146264285Y-74477619D02*
X146311904Y-74430000D01*
X146407142Y-74382380D01*
X146645238Y-74382380D01*
X146740476Y-74430000D01*
X146788095Y-74477619D01*
X146835714Y-74572857D01*
X146835714Y-74668095D01*
X146788095Y-74810952D01*
X146216666Y-75382380D01*
X146835714Y-75382380D01*
G04 #@! TO.C,R3*
X147153333Y-79192380D02*
X146820000Y-78716190D01*
X146581904Y-79192380D02*
X146581904Y-78192380D01*
X146962857Y-78192380D01*
X147058095Y-78240000D01*
X147105714Y-78287619D01*
X147153333Y-78382857D01*
X147153333Y-78525714D01*
X147105714Y-78620952D01*
X147058095Y-78668571D01*
X146962857Y-78716190D01*
X146581904Y-78716190D01*
X147486666Y-78192380D02*
X148105714Y-78192380D01*
X147772380Y-78573333D01*
X147915238Y-78573333D01*
X148010476Y-78620952D01*
X148058095Y-78668571D01*
X148105714Y-78763809D01*
X148105714Y-79001904D01*
X148058095Y-79097142D01*
X148010476Y-79144761D01*
X147915238Y-79192380D01*
X147629523Y-79192380D01*
X147534285Y-79144761D01*
X147486666Y-79097142D01*
G04 #@! TO.C,U1*
X144018095Y-82002380D02*
X144018095Y-82811904D01*
X144065714Y-82907142D01*
X144113333Y-82954761D01*
X144208571Y-83002380D01*
X144399047Y-83002380D01*
X144494285Y-82954761D01*
X144541904Y-82907142D01*
X144589523Y-82811904D01*
X144589523Y-82002380D01*
X145589523Y-83002380D02*
X145018095Y-83002380D01*
X145303809Y-83002380D02*
X145303809Y-82002380D01*
X145208571Y-82145238D01*
X145113333Y-82240476D01*
X145018095Y-82288095D01*
G04 #@! TD*
M02*
