M48
;DRILL file {KiCad 5.0.2-bee76a0~70~ubuntu18.04.1} date Thu Dec  3 10:48:04 2020
;FORMAT={-:-/ absolute / inch / decimal}
FMAT,2
INCH,TZ
T1C0.0315
T2C0.0354
T3C0.0598
%
G90
G05
T1
X5.4Y-2.95
X5.4Y-3.35
X5.55Y-3.1
X5.95Y-3.1
X5.55Y-2.95
X5.95Y-2.95
X6.Y-3.55
X6.0984Y-3.55
X5.55Y-3.25
X5.55Y-3.35
X5.55Y-3.45
X5.55Y-3.55
X5.85Y-3.25
X5.85Y-3.35
X5.85Y-3.45
X5.85Y-3.55
T2
X6.05Y-3.3
X6.05Y-3.4
T3
X5.15Y-3.25
X5.15Y-3.45
T0
M30
