G04 #@! TF.GenerationSoftware,KiCad,Pcbnew,5.0.2-bee76a0~70~ubuntu18.04.1*
G04 #@! TF.CreationDate,2020-12-03T10:47:44+05:30*
G04 #@! TF.ProjectId,How to make PCB,486f7720-746f-4206-9d61-6b6520504342,rev?*
G04 #@! TF.SameCoordinates,Original*
G04 #@! TF.FileFunction,Copper,L1,Top*
G04 #@! TF.FilePolarity,Positive*
%FSLAX46Y46*%
G04 Gerber Fmt 4.6, Leading zero omitted, Abs format (unit mm)*
G04 Created by KiCad (PCBNEW 5.0.2-bee76a0~70~ubuntu18.04.1) date Thu Dec  3 10:47:44 2020*
%MOMM*%
%LPD*%
G01*
G04 APERTURE LIST*
G04 #@! TA.AperFunction,ComponentPad*
%ADD10C,1.600000*%
G04 #@! TD*
G04 #@! TA.AperFunction,ComponentPad*
%ADD11R,1.800000X1.800000*%
G04 #@! TD*
G04 #@! TA.AperFunction,ComponentPad*
%ADD12C,1.800000*%
G04 #@! TD*
G04 #@! TA.AperFunction,ComponentPad*
%ADD13R,3.000000X3.000000*%
G04 #@! TD*
G04 #@! TA.AperFunction,ComponentPad*
%ADD14C,3.000000*%
G04 #@! TD*
G04 #@! TA.AperFunction,ComponentPad*
%ADD15O,1.600000X1.600000*%
G04 #@! TD*
G04 #@! TA.AperFunction,ComponentPad*
%ADD16R,2.400000X1.600000*%
G04 #@! TD*
G04 #@! TA.AperFunction,ComponentPad*
%ADD17O,2.400000X1.600000*%
G04 #@! TD*
G04 #@! TA.AperFunction,Conductor*
%ADD18C,0.250000*%
G04 #@! TD*
G04 APERTURE END LIST*
D10*
G04 #@! TO.P,C1,1*
G04 #@! TO.N,Net-(C1-Pad1)*
X152400000Y-90170000D03*
G04 #@! TO.P,C1,2*
G04 #@! TO.N,GND*
X154900000Y-90170000D03*
G04 #@! TD*
D11*
G04 #@! TO.P,D1,1*
G04 #@! TO.N,GND*
X153670000Y-86360000D03*
D12*
G04 #@! TO.P,D1,2*
G04 #@! TO.N,Net-(D1-Pad2)*
X153670000Y-83820000D03*
G04 #@! TD*
D13*
G04 #@! TO.P,J1,1*
G04 #@! TO.N,GND*
X130810000Y-82550000D03*
D14*
G04 #@! TO.P,J1,2*
G04 #@! TO.N,+9V*
X130810000Y-87630000D03*
G04 #@! TD*
D15*
G04 #@! TO.P,R1,2*
G04 #@! TO.N,Net-(C1-Pad1)*
X137160000Y-85090000D03*
D10*
G04 #@! TO.P,R1,1*
G04 #@! TO.N,1*
X137160000Y-74930000D03*
G04 #@! TD*
G04 #@! TO.P,R2,1*
G04 #@! TO.N,+9V*
X151130000Y-74930000D03*
D15*
G04 #@! TO.P,R2,2*
G04 #@! TO.N,1*
X140970000Y-74930000D03*
G04 #@! TD*
D10*
G04 #@! TO.P,R3,1*
G04 #@! TO.N,Net-(D1-Pad2)*
X151130000Y-78740000D03*
D15*
G04 #@! TO.P,R3,2*
G04 #@! TO.N,Net-(R3-Pad2)*
X140970000Y-78740000D03*
G04 #@! TD*
D16*
G04 #@! TO.P,U1,1*
G04 #@! TO.N,GND*
X140970000Y-82550000D03*
D17*
G04 #@! TO.P,U1,5*
G04 #@! TO.N,Net-(U1-Pad5)*
X148590000Y-90170000D03*
G04 #@! TO.P,U1,2*
G04 #@! TO.N,Net-(C1-Pad1)*
X140970000Y-85090000D03*
G04 #@! TO.P,U1,6*
X148590000Y-87630000D03*
G04 #@! TO.P,U1,3*
G04 #@! TO.N,Net-(R3-Pad2)*
X140970000Y-87630000D03*
G04 #@! TO.P,U1,7*
G04 #@! TO.N,1*
X148590000Y-85090000D03*
G04 #@! TO.P,U1,4*
G04 #@! TO.N,+9V*
X140970000Y-90170000D03*
G04 #@! TO.P,U1,8*
X148590000Y-82550000D03*
G04 #@! TD*
D18*
G04 #@! TO.N,Net-(C1-Pad1)*
X140970000Y-85090000D02*
X141370000Y-85090000D01*
X151530000Y-90170000D02*
X152400000Y-90170000D01*
X148990000Y-87630000D02*
X151530000Y-90170000D01*
X148590000Y-87630000D02*
X148990000Y-87630000D01*
X137160000Y-86221370D02*
X137160000Y-85090000D01*
X144524990Y-91295010D02*
X140104006Y-91295010D01*
X137160000Y-88351004D02*
X137160000Y-86221370D01*
X148190000Y-87630000D02*
X144524990Y-91295010D01*
X140104006Y-91295010D02*
X137160000Y-88351004D01*
X148590000Y-87630000D02*
X148190000Y-87630000D01*
X137160000Y-85090000D02*
X140970000Y-85090000D01*
G04 #@! TO.N,Net-(D1-Pad2)*
X151130000Y-81280000D02*
X153670000Y-83820000D01*
X151130000Y-78740000D02*
X151130000Y-81280000D01*
G04 #@! TO.N,+9V*
X140970000Y-90170000D02*
X148590000Y-82550000D01*
X148590000Y-77470000D02*
X148590000Y-82550000D01*
X151130000Y-74930000D02*
X148590000Y-77470000D01*
X147140000Y-82550000D02*
X148590000Y-82550000D01*
X142204999Y-77614999D02*
X147140000Y-82550000D01*
X132309999Y-85734999D02*
X140429999Y-77614999D01*
X132309999Y-86130001D02*
X132309999Y-85734999D01*
X140429999Y-77614999D02*
X142204999Y-77614999D01*
X130810000Y-87630000D02*
X132309999Y-86130001D01*
G04 #@! TO.N,1*
X137160000Y-74930000D02*
X140970000Y-74930000D01*
X154213002Y-85090000D02*
X150040000Y-85090000D01*
X154895001Y-84408001D02*
X154213002Y-85090000D01*
X154895001Y-77029999D02*
X154895001Y-84408001D01*
X150040000Y-85090000D02*
X148590000Y-85090000D01*
X151525002Y-73660000D02*
X154895001Y-77029999D01*
X142240000Y-73660000D02*
X151525002Y-73660000D01*
X140970000Y-74930000D02*
X142240000Y-73660000D01*
G04 #@! TO.N,Net-(R3-Pad2)*
X141370000Y-87630000D02*
X143510000Y-85490000D01*
X140970000Y-87630000D02*
X141370000Y-87630000D01*
X143510000Y-81280000D02*
X140970000Y-78740000D01*
X143510000Y-85490000D02*
X143510000Y-81280000D01*
G04 #@! TD*
M02*
