G04 #@! TF.GenerationSoftware,KiCad,Pcbnew,5.0.2-bee76a0~70~ubuntu18.04.1*
G04 #@! TF.CreationDate,2020-12-03T10:47:44+05:30*
G04 #@! TF.ProjectId,How to make PCB,486f7720-746f-4206-9d61-6b6520504342,rev?*
G04 #@! TF.SameCoordinates,Original*
G04 #@! TF.FileFunction,Soldermask,Top*
G04 #@! TF.FilePolarity,Negative*
%FSLAX46Y46*%
G04 Gerber Fmt 4.6, Leading zero omitted, Abs format (unit mm)*
G04 Created by KiCad (PCBNEW 5.0.2-bee76a0~70~ubuntu18.04.1) date Thu Dec  3 10:47:44 2020*
%MOMM*%
%LPD*%
G01*
G04 APERTURE LIST*
%ADD10C,0.100000*%
G04 APERTURE END LIST*
D10*
G36*
X159125256Y-93641298D02*
X159231579Y-93662447D01*
X159532042Y-93786903D01*
X159798852Y-93965180D01*
X159802454Y-93967587D01*
X160032413Y-94197546D01*
X160213098Y-94467960D01*
X160337553Y-94768422D01*
X160401000Y-95087389D01*
X160401000Y-95412611D01*
X160337553Y-95731578D01*
X160213098Y-96032040D01*
X160032413Y-96302454D01*
X159802454Y-96532413D01*
X159802451Y-96532415D01*
X159532042Y-96713097D01*
X159231579Y-96837553D01*
X159125256Y-96858702D01*
X158912611Y-96901000D01*
X158587389Y-96901000D01*
X158374744Y-96858702D01*
X158268421Y-96837553D01*
X157967958Y-96713097D01*
X157697549Y-96532415D01*
X157697546Y-96532413D01*
X157467587Y-96302454D01*
X157286902Y-96032040D01*
X157162447Y-95731578D01*
X157099000Y-95412611D01*
X157099000Y-95087389D01*
X157162447Y-94768422D01*
X157286902Y-94467960D01*
X157467587Y-94197546D01*
X157697546Y-93967587D01*
X157701148Y-93965180D01*
X157967958Y-93786903D01*
X158268421Y-93662447D01*
X158374744Y-93641298D01*
X158587389Y-93599000D01*
X158912611Y-93599000D01*
X159125256Y-93641298D01*
X159125256Y-93641298D01*
G37*
G36*
X131185256Y-93641298D02*
X131291579Y-93662447D01*
X131592042Y-93786903D01*
X131858852Y-93965180D01*
X131862454Y-93967587D01*
X132092413Y-94197546D01*
X132273098Y-94467960D01*
X132397553Y-94768422D01*
X132461000Y-95087389D01*
X132461000Y-95412611D01*
X132397553Y-95731578D01*
X132273098Y-96032040D01*
X132092413Y-96302454D01*
X131862454Y-96532413D01*
X131862451Y-96532415D01*
X131592042Y-96713097D01*
X131291579Y-96837553D01*
X131185256Y-96858702D01*
X130972611Y-96901000D01*
X130647389Y-96901000D01*
X130434744Y-96858702D01*
X130328421Y-96837553D01*
X130027958Y-96713097D01*
X129757549Y-96532415D01*
X129757546Y-96532413D01*
X129527587Y-96302454D01*
X129346902Y-96032040D01*
X129222447Y-95731578D01*
X129159000Y-95412611D01*
X129159000Y-95087389D01*
X129222447Y-94768422D01*
X129346902Y-94467960D01*
X129527587Y-94197546D01*
X129757546Y-93967587D01*
X129761148Y-93965180D01*
X130027958Y-93786903D01*
X130328421Y-93662447D01*
X130434744Y-93641298D01*
X130647389Y-93599000D01*
X130972611Y-93599000D01*
X131185256Y-93641298D01*
X131185256Y-93641298D01*
G37*
G36*
X152648228Y-89351703D02*
X152803100Y-89415853D01*
X152942481Y-89508985D01*
X153061015Y-89627519D01*
X153154147Y-89766900D01*
X153218297Y-89921772D01*
X153251000Y-90086184D01*
X153251000Y-90253816D01*
X153218297Y-90418228D01*
X153154147Y-90573100D01*
X153061015Y-90712481D01*
X152942481Y-90831015D01*
X152803100Y-90924147D01*
X152648228Y-90988297D01*
X152483816Y-91021000D01*
X152316184Y-91021000D01*
X152151772Y-90988297D01*
X151996900Y-90924147D01*
X151857519Y-90831015D01*
X151738985Y-90712481D01*
X151645853Y-90573100D01*
X151581703Y-90418228D01*
X151549000Y-90253816D01*
X151549000Y-90086184D01*
X151581703Y-89921772D01*
X151645853Y-89766900D01*
X151738985Y-89627519D01*
X151857519Y-89508985D01*
X151996900Y-89415853D01*
X152151772Y-89351703D01*
X152316184Y-89319000D01*
X152483816Y-89319000D01*
X152648228Y-89351703D01*
X152648228Y-89351703D01*
G37*
G36*
X141536821Y-89331313D02*
X141536824Y-89331314D01*
X141536825Y-89331314D01*
X141697239Y-89379975D01*
X141697241Y-89379976D01*
X141697244Y-89379977D01*
X141845078Y-89458995D01*
X141974659Y-89565341D01*
X142081005Y-89694922D01*
X142160023Y-89842756D01*
X142160024Y-89842759D01*
X142160025Y-89842761D01*
X142208686Y-90003175D01*
X142208687Y-90003179D01*
X142225117Y-90170000D01*
X142208687Y-90336821D01*
X142208686Y-90336824D01*
X142208686Y-90336825D01*
X142183993Y-90418228D01*
X142160023Y-90497244D01*
X142081005Y-90645078D01*
X141974659Y-90774659D01*
X141845078Y-90881005D01*
X141697244Y-90960023D01*
X141697241Y-90960024D01*
X141697239Y-90960025D01*
X141536825Y-91008686D01*
X141536824Y-91008686D01*
X141536821Y-91008687D01*
X141411804Y-91021000D01*
X140528196Y-91021000D01*
X140403179Y-91008687D01*
X140403176Y-91008686D01*
X140403175Y-91008686D01*
X140242761Y-90960025D01*
X140242759Y-90960024D01*
X140242756Y-90960023D01*
X140094922Y-90881005D01*
X139965341Y-90774659D01*
X139858995Y-90645078D01*
X139779977Y-90497244D01*
X139756008Y-90418228D01*
X139731314Y-90336825D01*
X139731314Y-90336824D01*
X139731313Y-90336821D01*
X139714883Y-90170000D01*
X139731313Y-90003179D01*
X139731314Y-90003175D01*
X139779975Y-89842761D01*
X139779976Y-89842759D01*
X139779977Y-89842756D01*
X139858995Y-89694922D01*
X139965341Y-89565341D01*
X140094922Y-89458995D01*
X140242756Y-89379977D01*
X140242759Y-89379976D01*
X140242761Y-89379975D01*
X140403175Y-89331314D01*
X140403176Y-89331314D01*
X140403179Y-89331313D01*
X140528196Y-89319000D01*
X141411804Y-89319000D01*
X141536821Y-89331313D01*
X141536821Y-89331313D01*
G37*
G36*
X149156821Y-89331313D02*
X149156824Y-89331314D01*
X149156825Y-89331314D01*
X149317239Y-89379975D01*
X149317241Y-89379976D01*
X149317244Y-89379977D01*
X149465078Y-89458995D01*
X149594659Y-89565341D01*
X149701005Y-89694922D01*
X149780023Y-89842756D01*
X149780024Y-89842759D01*
X149780025Y-89842761D01*
X149828686Y-90003175D01*
X149828687Y-90003179D01*
X149845117Y-90170000D01*
X149828687Y-90336821D01*
X149828686Y-90336824D01*
X149828686Y-90336825D01*
X149803993Y-90418228D01*
X149780023Y-90497244D01*
X149701005Y-90645078D01*
X149594659Y-90774659D01*
X149465078Y-90881005D01*
X149317244Y-90960023D01*
X149317241Y-90960024D01*
X149317239Y-90960025D01*
X149156825Y-91008686D01*
X149156824Y-91008686D01*
X149156821Y-91008687D01*
X149031804Y-91021000D01*
X148148196Y-91021000D01*
X148023179Y-91008687D01*
X148023176Y-91008686D01*
X148023175Y-91008686D01*
X147862761Y-90960025D01*
X147862759Y-90960024D01*
X147862756Y-90960023D01*
X147714922Y-90881005D01*
X147585341Y-90774659D01*
X147478995Y-90645078D01*
X147399977Y-90497244D01*
X147376008Y-90418228D01*
X147351314Y-90336825D01*
X147351314Y-90336824D01*
X147351313Y-90336821D01*
X147334883Y-90170000D01*
X147351313Y-90003179D01*
X147351314Y-90003175D01*
X147399975Y-89842761D01*
X147399976Y-89842759D01*
X147399977Y-89842756D01*
X147478995Y-89694922D01*
X147585341Y-89565341D01*
X147714922Y-89458995D01*
X147862756Y-89379977D01*
X147862759Y-89379976D01*
X147862761Y-89379975D01*
X148023175Y-89331314D01*
X148023176Y-89331314D01*
X148023179Y-89331313D01*
X148148196Y-89319000D01*
X149031804Y-89319000D01*
X149156821Y-89331313D01*
X149156821Y-89331313D01*
G37*
G36*
X155148228Y-89351703D02*
X155303100Y-89415853D01*
X155442481Y-89508985D01*
X155561015Y-89627519D01*
X155654147Y-89766900D01*
X155718297Y-89921772D01*
X155751000Y-90086184D01*
X155751000Y-90253816D01*
X155718297Y-90418228D01*
X155654147Y-90573100D01*
X155561015Y-90712481D01*
X155442481Y-90831015D01*
X155303100Y-90924147D01*
X155148228Y-90988297D01*
X154983816Y-91021000D01*
X154816184Y-91021000D01*
X154651772Y-90988297D01*
X154496900Y-90924147D01*
X154357519Y-90831015D01*
X154238985Y-90712481D01*
X154145853Y-90573100D01*
X154081703Y-90418228D01*
X154049000Y-90253816D01*
X154049000Y-90086184D01*
X154081703Y-89921772D01*
X154145853Y-89766900D01*
X154238985Y-89627519D01*
X154357519Y-89508985D01*
X154496900Y-89415853D01*
X154651772Y-89351703D01*
X154816184Y-89319000D01*
X154983816Y-89319000D01*
X155148228Y-89351703D01*
X155148228Y-89351703D01*
G37*
G36*
X131162527Y-86118736D02*
X131262410Y-86138604D01*
X131544674Y-86255521D01*
X131798705Y-86425259D01*
X132014741Y-86641295D01*
X132184479Y-86895326D01*
X132301396Y-87177590D01*
X132301396Y-87177591D01*
X132361000Y-87477238D01*
X132361000Y-87782762D01*
X132326294Y-87957239D01*
X132301396Y-88082410D01*
X132184479Y-88364674D01*
X132014741Y-88618705D01*
X131798705Y-88834741D01*
X131544674Y-89004479D01*
X131262410Y-89121396D01*
X131162527Y-89141264D01*
X130962762Y-89181000D01*
X130657238Y-89181000D01*
X130457473Y-89141264D01*
X130357590Y-89121396D01*
X130075326Y-89004479D01*
X129821295Y-88834741D01*
X129605259Y-88618705D01*
X129435521Y-88364674D01*
X129318604Y-88082410D01*
X129293706Y-87957239D01*
X129259000Y-87782762D01*
X129259000Y-87477238D01*
X129318604Y-87177591D01*
X129318604Y-87177590D01*
X129435521Y-86895326D01*
X129605259Y-86641295D01*
X129821295Y-86425259D01*
X130075326Y-86255521D01*
X130357590Y-86138604D01*
X130457473Y-86118736D01*
X130657238Y-86079000D01*
X130962762Y-86079000D01*
X131162527Y-86118736D01*
X131162527Y-86118736D01*
G37*
G36*
X141536821Y-86791313D02*
X141536824Y-86791314D01*
X141536825Y-86791314D01*
X141697239Y-86839975D01*
X141697241Y-86839976D01*
X141697244Y-86839977D01*
X141845078Y-86918995D01*
X141974659Y-87025341D01*
X142081005Y-87154922D01*
X142160023Y-87302756D01*
X142208687Y-87463179D01*
X142225117Y-87630000D01*
X142208687Y-87796821D01*
X142160023Y-87957244D01*
X142081005Y-88105078D01*
X141974659Y-88234659D01*
X141845078Y-88341005D01*
X141697244Y-88420023D01*
X141697241Y-88420024D01*
X141697239Y-88420025D01*
X141536825Y-88468686D01*
X141536824Y-88468686D01*
X141536821Y-88468687D01*
X141411804Y-88481000D01*
X140528196Y-88481000D01*
X140403179Y-88468687D01*
X140403176Y-88468686D01*
X140403175Y-88468686D01*
X140242761Y-88420025D01*
X140242759Y-88420024D01*
X140242756Y-88420023D01*
X140094922Y-88341005D01*
X139965341Y-88234659D01*
X139858995Y-88105078D01*
X139779977Y-87957244D01*
X139731313Y-87796821D01*
X139714883Y-87630000D01*
X139731313Y-87463179D01*
X139779977Y-87302756D01*
X139858995Y-87154922D01*
X139965341Y-87025341D01*
X140094922Y-86918995D01*
X140242756Y-86839977D01*
X140242759Y-86839976D01*
X140242761Y-86839975D01*
X140403175Y-86791314D01*
X140403176Y-86791314D01*
X140403179Y-86791313D01*
X140528196Y-86779000D01*
X141411804Y-86779000D01*
X141536821Y-86791313D01*
X141536821Y-86791313D01*
G37*
G36*
X149156821Y-86791313D02*
X149156824Y-86791314D01*
X149156825Y-86791314D01*
X149317239Y-86839975D01*
X149317241Y-86839976D01*
X149317244Y-86839977D01*
X149465078Y-86918995D01*
X149594659Y-87025341D01*
X149701005Y-87154922D01*
X149780023Y-87302756D01*
X149828687Y-87463179D01*
X149845117Y-87630000D01*
X149828687Y-87796821D01*
X149780023Y-87957244D01*
X149701005Y-88105078D01*
X149594659Y-88234659D01*
X149465078Y-88341005D01*
X149317244Y-88420023D01*
X149317241Y-88420024D01*
X149317239Y-88420025D01*
X149156825Y-88468686D01*
X149156824Y-88468686D01*
X149156821Y-88468687D01*
X149031804Y-88481000D01*
X148148196Y-88481000D01*
X148023179Y-88468687D01*
X148023176Y-88468686D01*
X148023175Y-88468686D01*
X147862761Y-88420025D01*
X147862759Y-88420024D01*
X147862756Y-88420023D01*
X147714922Y-88341005D01*
X147585341Y-88234659D01*
X147478995Y-88105078D01*
X147399977Y-87957244D01*
X147351313Y-87796821D01*
X147334883Y-87630000D01*
X147351313Y-87463179D01*
X147399977Y-87302756D01*
X147478995Y-87154922D01*
X147585341Y-87025341D01*
X147714922Y-86918995D01*
X147862756Y-86839977D01*
X147862759Y-86839976D01*
X147862761Y-86839975D01*
X148023175Y-86791314D01*
X148023176Y-86791314D01*
X148023179Y-86791313D01*
X148148196Y-86779000D01*
X149031804Y-86779000D01*
X149156821Y-86791313D01*
X149156821Y-86791313D01*
G37*
G36*
X154621000Y-87311000D02*
X152719000Y-87311000D01*
X152719000Y-85409000D01*
X154621000Y-85409000D01*
X154621000Y-87311000D01*
X154621000Y-87311000D01*
G37*
G36*
X137326821Y-84251313D02*
X137326824Y-84251314D01*
X137326825Y-84251314D01*
X137487239Y-84299975D01*
X137487241Y-84299976D01*
X137487244Y-84299977D01*
X137635078Y-84378995D01*
X137764659Y-84485341D01*
X137871005Y-84614922D01*
X137950023Y-84762756D01*
X137998687Y-84923179D01*
X138015117Y-85090000D01*
X137998687Y-85256821D01*
X137950023Y-85417244D01*
X137871005Y-85565078D01*
X137764659Y-85694659D01*
X137635078Y-85801005D01*
X137487244Y-85880023D01*
X137487241Y-85880024D01*
X137487239Y-85880025D01*
X137326825Y-85928686D01*
X137326824Y-85928686D01*
X137326821Y-85928687D01*
X137201804Y-85941000D01*
X137118196Y-85941000D01*
X136993179Y-85928687D01*
X136993176Y-85928686D01*
X136993175Y-85928686D01*
X136832761Y-85880025D01*
X136832759Y-85880024D01*
X136832756Y-85880023D01*
X136684922Y-85801005D01*
X136555341Y-85694659D01*
X136448995Y-85565078D01*
X136369977Y-85417244D01*
X136321313Y-85256821D01*
X136304883Y-85090000D01*
X136321313Y-84923179D01*
X136369977Y-84762756D01*
X136448995Y-84614922D01*
X136555341Y-84485341D01*
X136684922Y-84378995D01*
X136832756Y-84299977D01*
X136832759Y-84299976D01*
X136832761Y-84299975D01*
X136993175Y-84251314D01*
X136993176Y-84251314D01*
X136993179Y-84251313D01*
X137118196Y-84239000D01*
X137201804Y-84239000D01*
X137326821Y-84251313D01*
X137326821Y-84251313D01*
G37*
G36*
X141536821Y-84251313D02*
X141536824Y-84251314D01*
X141536825Y-84251314D01*
X141697239Y-84299975D01*
X141697241Y-84299976D01*
X141697244Y-84299977D01*
X141845078Y-84378995D01*
X141974659Y-84485341D01*
X142081005Y-84614922D01*
X142160023Y-84762756D01*
X142208687Y-84923179D01*
X142225117Y-85090000D01*
X142208687Y-85256821D01*
X142160023Y-85417244D01*
X142081005Y-85565078D01*
X141974659Y-85694659D01*
X141845078Y-85801005D01*
X141697244Y-85880023D01*
X141697241Y-85880024D01*
X141697239Y-85880025D01*
X141536825Y-85928686D01*
X141536824Y-85928686D01*
X141536821Y-85928687D01*
X141411804Y-85941000D01*
X140528196Y-85941000D01*
X140403179Y-85928687D01*
X140403176Y-85928686D01*
X140403175Y-85928686D01*
X140242761Y-85880025D01*
X140242759Y-85880024D01*
X140242756Y-85880023D01*
X140094922Y-85801005D01*
X139965341Y-85694659D01*
X139858995Y-85565078D01*
X139779977Y-85417244D01*
X139731313Y-85256821D01*
X139714883Y-85090000D01*
X139731313Y-84923179D01*
X139779977Y-84762756D01*
X139858995Y-84614922D01*
X139965341Y-84485341D01*
X140094922Y-84378995D01*
X140242756Y-84299977D01*
X140242759Y-84299976D01*
X140242761Y-84299975D01*
X140403175Y-84251314D01*
X140403176Y-84251314D01*
X140403179Y-84251313D01*
X140528196Y-84239000D01*
X141411804Y-84239000D01*
X141536821Y-84251313D01*
X141536821Y-84251313D01*
G37*
G36*
X149156821Y-84251313D02*
X149156824Y-84251314D01*
X149156825Y-84251314D01*
X149317239Y-84299975D01*
X149317241Y-84299976D01*
X149317244Y-84299977D01*
X149465078Y-84378995D01*
X149594659Y-84485341D01*
X149701005Y-84614922D01*
X149780023Y-84762756D01*
X149828687Y-84923179D01*
X149845117Y-85090000D01*
X149828687Y-85256821D01*
X149780023Y-85417244D01*
X149701005Y-85565078D01*
X149594659Y-85694659D01*
X149465078Y-85801005D01*
X149317244Y-85880023D01*
X149317241Y-85880024D01*
X149317239Y-85880025D01*
X149156825Y-85928686D01*
X149156824Y-85928686D01*
X149156821Y-85928687D01*
X149031804Y-85941000D01*
X148148196Y-85941000D01*
X148023179Y-85928687D01*
X148023176Y-85928686D01*
X148023175Y-85928686D01*
X147862761Y-85880025D01*
X147862759Y-85880024D01*
X147862756Y-85880023D01*
X147714922Y-85801005D01*
X147585341Y-85694659D01*
X147478995Y-85565078D01*
X147399977Y-85417244D01*
X147351313Y-85256821D01*
X147334883Y-85090000D01*
X147351313Y-84923179D01*
X147399977Y-84762756D01*
X147478995Y-84614922D01*
X147585341Y-84485341D01*
X147714922Y-84378995D01*
X147862756Y-84299977D01*
X147862759Y-84299976D01*
X147862761Y-84299975D01*
X148023175Y-84251314D01*
X148023176Y-84251314D01*
X148023179Y-84251313D01*
X148148196Y-84239000D01*
X149031804Y-84239000D01*
X149156821Y-84251313D01*
X149156821Y-84251313D01*
G37*
G36*
X153947396Y-82905546D02*
X154120466Y-82977234D01*
X154276230Y-83081312D01*
X154408688Y-83213770D01*
X154512766Y-83369534D01*
X154584454Y-83542604D01*
X154621000Y-83726333D01*
X154621000Y-83913667D01*
X154584454Y-84097396D01*
X154512766Y-84270466D01*
X154408688Y-84426230D01*
X154276230Y-84558688D01*
X154120466Y-84662766D01*
X153947396Y-84734454D01*
X153763667Y-84771000D01*
X153576333Y-84771000D01*
X153392604Y-84734454D01*
X153219534Y-84662766D01*
X153063770Y-84558688D01*
X152931312Y-84426230D01*
X152827234Y-84270466D01*
X152755546Y-84097396D01*
X152719000Y-83913667D01*
X152719000Y-83726333D01*
X152755546Y-83542604D01*
X152827234Y-83369534D01*
X152931312Y-83213770D01*
X153063770Y-83081312D01*
X153219534Y-82977234D01*
X153392604Y-82905546D01*
X153576333Y-82869000D01*
X153763667Y-82869000D01*
X153947396Y-82905546D01*
X153947396Y-82905546D01*
G37*
G36*
X132361000Y-84101000D02*
X129259000Y-84101000D01*
X129259000Y-80999000D01*
X132361000Y-80999000D01*
X132361000Y-84101000D01*
X132361000Y-84101000D01*
G37*
G36*
X149156821Y-81711313D02*
X149156824Y-81711314D01*
X149156825Y-81711314D01*
X149317239Y-81759975D01*
X149317241Y-81759976D01*
X149317244Y-81759977D01*
X149465078Y-81838995D01*
X149594659Y-81945341D01*
X149701005Y-82074922D01*
X149780023Y-82222756D01*
X149828687Y-82383179D01*
X149845117Y-82550000D01*
X149828687Y-82716821D01*
X149780023Y-82877244D01*
X149701005Y-83025078D01*
X149594659Y-83154659D01*
X149465078Y-83261005D01*
X149317244Y-83340023D01*
X149317241Y-83340024D01*
X149317239Y-83340025D01*
X149156825Y-83388686D01*
X149156824Y-83388686D01*
X149156821Y-83388687D01*
X149031804Y-83401000D01*
X148148196Y-83401000D01*
X148023179Y-83388687D01*
X148023176Y-83388686D01*
X148023175Y-83388686D01*
X147862761Y-83340025D01*
X147862759Y-83340024D01*
X147862756Y-83340023D01*
X147714922Y-83261005D01*
X147585341Y-83154659D01*
X147478995Y-83025078D01*
X147399977Y-82877244D01*
X147351313Y-82716821D01*
X147334883Y-82550000D01*
X147351313Y-82383179D01*
X147399977Y-82222756D01*
X147478995Y-82074922D01*
X147585341Y-81945341D01*
X147714922Y-81838995D01*
X147862756Y-81759977D01*
X147862759Y-81759976D01*
X147862761Y-81759975D01*
X148023175Y-81711314D01*
X148023176Y-81711314D01*
X148023179Y-81711313D01*
X148148196Y-81699000D01*
X149031804Y-81699000D01*
X149156821Y-81711313D01*
X149156821Y-81711313D01*
G37*
G36*
X142221000Y-83401000D02*
X139719000Y-83401000D01*
X139719000Y-81699000D01*
X142221000Y-81699000D01*
X142221000Y-83401000D01*
X142221000Y-83401000D01*
G37*
G36*
X151378228Y-77921703D02*
X151533100Y-77985853D01*
X151672481Y-78078985D01*
X151791015Y-78197519D01*
X151884147Y-78336900D01*
X151948297Y-78491772D01*
X151981000Y-78656184D01*
X151981000Y-78823816D01*
X151948297Y-78988228D01*
X151884147Y-79143100D01*
X151791015Y-79282481D01*
X151672481Y-79401015D01*
X151533100Y-79494147D01*
X151378228Y-79558297D01*
X151213816Y-79591000D01*
X151046184Y-79591000D01*
X150881772Y-79558297D01*
X150726900Y-79494147D01*
X150587519Y-79401015D01*
X150468985Y-79282481D01*
X150375853Y-79143100D01*
X150311703Y-78988228D01*
X150279000Y-78823816D01*
X150279000Y-78656184D01*
X150311703Y-78491772D01*
X150375853Y-78336900D01*
X150468985Y-78197519D01*
X150587519Y-78078985D01*
X150726900Y-77985853D01*
X150881772Y-77921703D01*
X151046184Y-77889000D01*
X151213816Y-77889000D01*
X151378228Y-77921703D01*
X151378228Y-77921703D01*
G37*
G36*
X141136821Y-77901313D02*
X141136824Y-77901314D01*
X141136825Y-77901314D01*
X141297239Y-77949975D01*
X141297241Y-77949976D01*
X141297244Y-77949977D01*
X141445078Y-78028995D01*
X141574659Y-78135341D01*
X141681005Y-78264922D01*
X141760023Y-78412756D01*
X141760024Y-78412759D01*
X141760025Y-78412761D01*
X141808686Y-78573175D01*
X141808687Y-78573179D01*
X141825117Y-78740000D01*
X141808687Y-78906821D01*
X141808686Y-78906824D01*
X141808686Y-78906825D01*
X141783993Y-78988228D01*
X141760023Y-79067244D01*
X141681005Y-79215078D01*
X141574659Y-79344659D01*
X141445078Y-79451005D01*
X141297244Y-79530023D01*
X141297241Y-79530024D01*
X141297239Y-79530025D01*
X141136825Y-79578686D01*
X141136824Y-79578686D01*
X141136821Y-79578687D01*
X141011804Y-79591000D01*
X140928196Y-79591000D01*
X140803179Y-79578687D01*
X140803176Y-79578686D01*
X140803175Y-79578686D01*
X140642761Y-79530025D01*
X140642759Y-79530024D01*
X140642756Y-79530023D01*
X140494922Y-79451005D01*
X140365341Y-79344659D01*
X140258995Y-79215078D01*
X140179977Y-79067244D01*
X140156008Y-78988228D01*
X140131314Y-78906825D01*
X140131314Y-78906824D01*
X140131313Y-78906821D01*
X140114883Y-78740000D01*
X140131313Y-78573179D01*
X140131314Y-78573175D01*
X140179975Y-78412761D01*
X140179976Y-78412759D01*
X140179977Y-78412756D01*
X140258995Y-78264922D01*
X140365341Y-78135341D01*
X140494922Y-78028995D01*
X140642756Y-77949977D01*
X140642759Y-77949976D01*
X140642761Y-77949975D01*
X140803175Y-77901314D01*
X140803176Y-77901314D01*
X140803179Y-77901313D01*
X140928196Y-77889000D01*
X141011804Y-77889000D01*
X141136821Y-77901313D01*
X141136821Y-77901313D01*
G37*
G36*
X131185256Y-73321298D02*
X131291579Y-73342447D01*
X131592042Y-73466903D01*
X131858852Y-73645180D01*
X131862454Y-73647587D01*
X132092413Y-73877546D01*
X132092415Y-73877549D01*
X132273097Y-74147958D01*
X132372327Y-74387519D01*
X132397553Y-74448422D01*
X132461000Y-74767389D01*
X132461000Y-75092611D01*
X132428253Y-75257239D01*
X132397553Y-75411579D01*
X132273097Y-75712042D01*
X132094820Y-75978852D01*
X132092413Y-75982454D01*
X131862454Y-76212413D01*
X131862451Y-76212415D01*
X131592042Y-76393097D01*
X131291579Y-76517553D01*
X131185256Y-76538702D01*
X130972611Y-76581000D01*
X130647389Y-76581000D01*
X130434744Y-76538702D01*
X130328421Y-76517553D01*
X130027958Y-76393097D01*
X129757549Y-76212415D01*
X129757546Y-76212413D01*
X129527587Y-75982454D01*
X129525180Y-75978852D01*
X129346903Y-75712042D01*
X129222447Y-75411579D01*
X129191747Y-75257239D01*
X129159000Y-75092611D01*
X129159000Y-74767389D01*
X129222447Y-74448422D01*
X129247674Y-74387519D01*
X129346903Y-74147958D01*
X129527585Y-73877549D01*
X129527587Y-73877546D01*
X129757546Y-73647587D01*
X129761148Y-73645180D01*
X130027958Y-73466903D01*
X130328421Y-73342447D01*
X130434744Y-73321298D01*
X130647389Y-73279000D01*
X130972611Y-73279000D01*
X131185256Y-73321298D01*
X131185256Y-73321298D01*
G37*
G36*
X159125256Y-73321298D02*
X159231579Y-73342447D01*
X159532042Y-73466903D01*
X159798852Y-73645180D01*
X159802454Y-73647587D01*
X160032413Y-73877546D01*
X160032415Y-73877549D01*
X160213097Y-74147958D01*
X160312327Y-74387519D01*
X160337553Y-74448422D01*
X160401000Y-74767389D01*
X160401000Y-75092611D01*
X160368253Y-75257239D01*
X160337553Y-75411579D01*
X160213097Y-75712042D01*
X160034820Y-75978852D01*
X160032413Y-75982454D01*
X159802454Y-76212413D01*
X159802451Y-76212415D01*
X159532042Y-76393097D01*
X159231579Y-76517553D01*
X159125256Y-76538702D01*
X158912611Y-76581000D01*
X158587389Y-76581000D01*
X158374744Y-76538702D01*
X158268421Y-76517553D01*
X157967958Y-76393097D01*
X157697549Y-76212415D01*
X157697546Y-76212413D01*
X157467587Y-75982454D01*
X157465180Y-75978852D01*
X157286903Y-75712042D01*
X157162447Y-75411579D01*
X157131747Y-75257239D01*
X157099000Y-75092611D01*
X157099000Y-74767389D01*
X157162447Y-74448422D01*
X157187674Y-74387519D01*
X157286903Y-74147958D01*
X157467585Y-73877549D01*
X157467587Y-73877546D01*
X157697546Y-73647587D01*
X157701148Y-73645180D01*
X157967958Y-73466903D01*
X158268421Y-73342447D01*
X158374744Y-73321298D01*
X158587389Y-73279000D01*
X158912611Y-73279000D01*
X159125256Y-73321298D01*
X159125256Y-73321298D01*
G37*
G36*
X137408228Y-74111703D02*
X137563100Y-74175853D01*
X137702481Y-74268985D01*
X137821015Y-74387519D01*
X137914147Y-74526900D01*
X137978297Y-74681772D01*
X138011000Y-74846184D01*
X138011000Y-75013816D01*
X137978297Y-75178228D01*
X137914147Y-75333100D01*
X137821015Y-75472481D01*
X137702481Y-75591015D01*
X137563100Y-75684147D01*
X137408228Y-75748297D01*
X137243816Y-75781000D01*
X137076184Y-75781000D01*
X136911772Y-75748297D01*
X136756900Y-75684147D01*
X136617519Y-75591015D01*
X136498985Y-75472481D01*
X136405853Y-75333100D01*
X136341703Y-75178228D01*
X136309000Y-75013816D01*
X136309000Y-74846184D01*
X136341703Y-74681772D01*
X136405853Y-74526900D01*
X136498985Y-74387519D01*
X136617519Y-74268985D01*
X136756900Y-74175853D01*
X136911772Y-74111703D01*
X137076184Y-74079000D01*
X137243816Y-74079000D01*
X137408228Y-74111703D01*
X137408228Y-74111703D01*
G37*
G36*
X151378228Y-74111703D02*
X151533100Y-74175853D01*
X151672481Y-74268985D01*
X151791015Y-74387519D01*
X151884147Y-74526900D01*
X151948297Y-74681772D01*
X151981000Y-74846184D01*
X151981000Y-75013816D01*
X151948297Y-75178228D01*
X151884147Y-75333100D01*
X151791015Y-75472481D01*
X151672481Y-75591015D01*
X151533100Y-75684147D01*
X151378228Y-75748297D01*
X151213816Y-75781000D01*
X151046184Y-75781000D01*
X150881772Y-75748297D01*
X150726900Y-75684147D01*
X150587519Y-75591015D01*
X150468985Y-75472481D01*
X150375853Y-75333100D01*
X150311703Y-75178228D01*
X150279000Y-75013816D01*
X150279000Y-74846184D01*
X150311703Y-74681772D01*
X150375853Y-74526900D01*
X150468985Y-74387519D01*
X150587519Y-74268985D01*
X150726900Y-74175853D01*
X150881772Y-74111703D01*
X151046184Y-74079000D01*
X151213816Y-74079000D01*
X151378228Y-74111703D01*
X151378228Y-74111703D01*
G37*
G36*
X141136821Y-74091313D02*
X141136824Y-74091314D01*
X141136825Y-74091314D01*
X141297239Y-74139975D01*
X141297241Y-74139976D01*
X141297244Y-74139977D01*
X141445078Y-74218995D01*
X141574659Y-74325341D01*
X141681005Y-74454922D01*
X141760023Y-74602756D01*
X141760024Y-74602759D01*
X141760025Y-74602761D01*
X141808686Y-74763175D01*
X141808687Y-74763179D01*
X141825117Y-74930000D01*
X141808687Y-75096821D01*
X141808686Y-75096824D01*
X141808686Y-75096825D01*
X141783993Y-75178228D01*
X141760023Y-75257244D01*
X141681005Y-75405078D01*
X141574659Y-75534659D01*
X141445078Y-75641005D01*
X141297244Y-75720023D01*
X141297241Y-75720024D01*
X141297239Y-75720025D01*
X141136825Y-75768686D01*
X141136824Y-75768686D01*
X141136821Y-75768687D01*
X141011804Y-75781000D01*
X140928196Y-75781000D01*
X140803179Y-75768687D01*
X140803176Y-75768686D01*
X140803175Y-75768686D01*
X140642761Y-75720025D01*
X140642759Y-75720024D01*
X140642756Y-75720023D01*
X140494922Y-75641005D01*
X140365341Y-75534659D01*
X140258995Y-75405078D01*
X140179977Y-75257244D01*
X140156008Y-75178228D01*
X140131314Y-75096825D01*
X140131314Y-75096824D01*
X140131313Y-75096821D01*
X140114883Y-74930000D01*
X140131313Y-74763179D01*
X140131314Y-74763175D01*
X140179975Y-74602761D01*
X140179976Y-74602759D01*
X140179977Y-74602756D01*
X140258995Y-74454922D01*
X140365341Y-74325341D01*
X140494922Y-74218995D01*
X140642756Y-74139977D01*
X140642759Y-74139976D01*
X140642761Y-74139975D01*
X140803175Y-74091314D01*
X140803176Y-74091314D01*
X140803179Y-74091313D01*
X140928196Y-74079000D01*
X141011804Y-74079000D01*
X141136821Y-74091313D01*
X141136821Y-74091313D01*
G37*
M02*
